<svg xmlns="http://www.w3.org/2000/svg" width="1440" height="500" fill="none" viewBox="0 0 1440 500">
  <g clip-path="url(#a)">
    <path fill="#fff" d="M1455 0H-15v500h1470V0Z"/>
    <path fill="#E8E4D4" d="M135.38 79.35C70.87 93.22 15.82 125.86-28.31 172v338.2H703.3c-29.2-59.59-114.65-96.89-166.44-120.73-43.89-20.2-88.6-39.43-127.7-68.38-43.18-32-64.9-75.49-85.69-123.9-15.74-36.69-28.47-81.8-64.8-104-35.37-21.61-84.11-22.25-123.29-13.84Z" opacity=".5"/>
    <path fill="#629867" d="M753 197.77c8.23 1.58 16.9 1.34 25.29 1.11 7.37-.2 14.33-.39 20.94.56a51.527 51.527 0 0 1 10.2 2.46 48.411 48.411 0 0 1 7.24 3.1c-1.15-1.47-2.3-2.95-3.43-4.42l-1.16-1.52-2.08-2.95.14.62-1.3-2.13a22.92 22.92 0 0 0-2.6-3.42c-.948-1.098-2-2.103-3.14-3a24.549 24.549 0 0 0-3.73-2.4 31.955 31.955 0 0 0-4.21-1.87 63.839 63.839 0 0 0-8.34-2.12l-.74-.15a63.5 63.5 0 0 1-9.22-2.56 30.955 30.955 0 0 1-3.3-1.52 31.863 31.863 0 0 1-3-1.88 39.686 39.686 0 0 1-5.35-4.54 48.85 48.85 0 0 1-4.44-5.4c-.65-.91-1.31-1.88-2-2.88-.56-.85-1.05-1.74-1.53-2.6l-.24-.42c-1.21-2.19-2.34-4.43-3.19-6.13-.58-1.19-1.13-2.4-1.68-3.6-.41-.89-.81-1.78-1.23-2.66-.42-.88-.8-1.66-1.19-2.49a96.855 96.855 0 0 0-5.09-9.72l-.91-1.46 1.47.9a70.855 70.855 0 0 0 9.68 4.87c3 1.24 6.16 2.33 9.21 3.38l6.24 2.14c1.95.66 3.55 1.23 5 1.8a71.956 71.956 0 0 1 9.33 4.3 39.278 39.278 0 0 1 5 3.35c.74.6 1.49 1.21 2.22 1.84.73.63 1.42 1.3 2.08 2a41.588 41.588 0 0 1 3.63 4.31 42.503 42.503 0 0 1 3.13 4.72 60.847 60.847 0 0 1 4.68 10.52l.31 1c.48 1.51 1 3.08 1.39 4.68.49 1.86.92 3.83 1.28 5.84A184.739 184.739 0 0 0 823.23 209c.87.61 1.7 1.26 2.52 1.93-.83-1.4-1.6-2.81-2.33-4.16-.58-1.08-1.13-2.16-1.65-3.23-.52-1.07-.93-2.13-1.43-3.36a48.758 48.758 0 0 1-3-10.11 34.379 34.379 0 0 1-.29-10.92 41.97 41.97 0 0 1 1.29-5.94 55.597 55.597 0 0 1 2.08-5.92c1.6-3.9 3.52-7.74 5.5-11.65l2.88-5.65c1.08-2.15 1.92-3.9 2.63-5.51a56.29 56.29 0 0 0 2.07-5.3 33.468 33.468 0 0 0 1.37-5.15l.63-3.56.17 3.61c0 .8.11 1.64.22 2.49.086.81.217 1.614.39 2.41.3 1.41.69 2.91 1.21 4.71l.71 2.34.8 2.3c.51 1.48 1.06 3.07 1.55 4.7l.92 3.06c.3 1 .58 2.11.83 3.16.25 1.05.49 2.17.69 3.25.27 1.29.47 2.34.62 3.31.35 2.06.6 4.34.78 6.95.193 2.442.26 4.891.2 7.34 0 1.08-.08 2.2-.17 3.32-.09 1.12-.17 2.2-.3 3.29-.24 2.12-.59 4.31-1.07 6.72-.87 4.25-1.95 8.73-3.41 14.12-1.7 6.13-.57 12.45.52 18.55l.06.3 6 5.19c.65.56 1.35 1.15 2.06 1.7l6.34 5c.46.36.93.69 1.4 1l.7.5a55.354 55.354 0 0 1 8.42 3.59l-.78-.84c-.82-.94-1.61-1.93-2.31-2.8-1.31-1.68-2.85-3.68-4.27-5.85a53.79 53.79 0 0 1-4.78-9.29 36.714 36.714 0 0 1-2.32-10.6 49.85 49.85 0 0 1 1.22-12.26c.2-1 .44-2 .7-3.1.26-1.1.54-2.09.83-3.12.56-2 1.13-3.9 1.83-6.19l.29-.93c1.16-3.8 2.26-7.39 3.18-11 .52-2.06.9-3.89 1.16-5.57a39.66 39.66 0 0 0 .44-5.23l.08-3.71.72 3.64a27.956 27.956 0 0 0 1.44 4.61c.52 1.33 1.14 2.73 1.93 4.39l4.59 8.49c1 1.86 1.94 3.8 2.76 5.74.82 1.94 1.71 4 2.44 6.12.37 1.06.71 2.17 1 3.26.29 1.09.68 2.24 1 3.33.59 2.23 1.08 4.64 1.48 7.15a70.99 70.99 0 0 1 .93 13.32c0 4.35-.26 8.92-.67 14.46-.06.84-.07 1.65 0 2.43.07.78.11 1.57.21 2.38a36.352 36.352 0 0 0 1 4.73c.38 1.4.87 2.91 1.49 4.65.39 1.09.83 2.14 1.25 3.16.16.37.31.74.46 1.11.43.3.84.61 1.17.88l3.35 1.8c.64.35 1.3.71 2 1l7.75 3.79 7.95 3.52c.77.36 1.58.68 2.37 1l3 1.18c1.42.25 2.85.58 4.26 1l.84.23.59.15c-.37-.24-.74-.48-1.1-.73-1.17-.84-2.31-1.69-3.39-2.52a92.3 92.3 0 0 1-3.28-2.64l-.82-.69-.77-.73c-.51-.48-1-1-1.52-1.48a45.838 45.838 0 0 1-6.72-8 40.177 40.177 0 0 1-2.6-4.67 27.133 27.133 0 0 1-1.05-2.51c-.32-.89-.59-1.79-.83-2.69a48.222 48.222 0 0 1-1.43-12.17c0-4.34.36-8.7.72-12.8l.56-6.27c.22-2.4.36-4.32.43-6 .1-2.11.1-4 0-5.61a35.73 35.73 0 0 0-.55-5.2l-.69-3.58 1.46 3.34c2 4.59 5 8.1 8.21 11.81.95 1.1 1.92 2.23 2.86 3.39l.17.21c1.23 1.49 2.51 3 3.68 4.71.63.88 1.25 1.81 1.82 2.68.57.87 1.22 1.8 1.8 2.74 1.22 2 2.36 4.13 3.31 6a68.148 68.148 0 0 1 3 6.58c3.21 7.94 4.7 16.56 6.31 27 .92 6.3 4.52 11.59 8 16.7l.11.16c10.11 3.12 20.94 5.86 32.24 8.15-.5-.22-1-.45-1.47-.68a47.464 47.464 0 0 1-4.76-2.51c-1.62-1-3.07-1.9-4.42-2.86-.73-.51-1.44-1-2.12-1.57-.68-.57-1.33-1.14-2-1.77a39.73 39.73 0 0 1-3.68-3.95 28.305 28.305 0 0 1-3.12-4.59 49.159 49.159 0 0 1-4.34-11.51c-1-4-1.71-8.29-2.39-12.64l-1-6.2c-.37-2.39-.7-4.3-1-6a48.902 48.902 0 0 0-3.12-10.4l-1.38-3.13 2.07 2.72c.48.63 1 1.26 1.53 1.87.53.61 1 1.05 1.68 1.66 1 1 2.17 1.93 3.6 3.07l.92.73 2.89 2.05c1.16.81 2.39 1.71 3.87 2.83a83.897 83.897 0 0 1 9.8 8.28 85.487 85.487 0 0 1 9.18 10.72l.16.23c.58.83 1.14 1.63 1.69 2.45.55.82 1.17 1.83 1.74 2.79 1.08 1.82 2.14 3.78 3.23 6l1.52 3.13c.5 1.05 1 2.13 1.49 3.23 1.05 2.31 2.1 4.74 3 6.82a23.826 23.826 0 0 0 2.34 4.24 36.066 36.066 0 0 0 3.06 3.73c1 1.06 2.13 2.18 3.48 3.42l1.8 1.62 1.74 1.45c1.63.44 3.12.92 4.58 1.46 1 .37 2 .79 3 1.19l.23.09c3.48 1.3 6.62 2.38 9.81 2.33h.4l.09 2.48h-.41c-3.66.05-7.22-1.18-10.57-2.46l-.2-.08c-1-.4-2-.81-3-1.18-1.23-.46-2.53-.88-3.87-1.26-.64.12-1.29.26-1.94.44-.65.18-1.28.31-2 .55a27.023 27.023 0 0 0-4 1.61 32.598 32.598 0 0 0-3.86 2.27 39.674 39.674 0 0 0-3.68 2.8 81.399 81.399 0 0 0-6.49 6.5l-.92 1c-.49.53-1 1.06-1.47 1.56s-1.21 1.22-1.82 1.81a46.854 46.854 0 0 1-3.88 3.38 38.398 38.398 0 0 1-6.64 4.07c-.75.34-1.51.66-2.29 1a47.816 47.816 0 0 1-4.9 1.57 60.7 60.7 0 0 1-15.2 1.82h-1.91l-1.62-.05h-.28l-3.81-.2-4.51-.29c-1-.06-2.09-.13-3.12-.24-4.81-.47-10-.75-15.33-.85h-1.83l1.68-.73c1.71-.76 3.49-1.65 5.28-2.64 1.48-.83 3.1-1.83 5.09-3.14 3.38-2.23 6.64-4.65 9.68-6.92l2.88-2.19c2.15-1.64 4.37-3.33 6.54-4.87 1.69-1.2 3.23-2.25 4.71-3.18l2.39-1.47c.82-.5 1.63-1 2.42-1.4a52.825 52.825 0 0 1 8.19-3.6 49.86 49.86 0 0 1 8.22-2.24c2.7-.5 5.429-.834 8.17-1 .92-.05 1.84-.06 2.78-.06-11.23-2.18-22.14-4.84-32.51-7.91l.22.31-2-.83-.7-.2h-.18a29.89 29.89 0 0 0-3.54.15 26.597 26.597 0 0 0-3.83.69 31.253 31.253 0 0 0-3.88 1.25 37.624 37.624 0 0 0-3.84 1.71 81.537 81.537 0 0 0-7.82 4.82l-2.83 1.87c-.72.47-1.45.91-2.18 1.34a43.88 43.88 0 0 1-4.51 2.38 38.136 38.136 0 0 1-7.3 2.42c-2.461.492-4.961.77-7.47.83h-3.78l-1.9-.11-1.87-.22c-2.33-.3-4.75-.73-7.39-1.31-2.15-.44-4.28-1.07-6.33-1.68l-2.87-.86c-1.72-.52-3.5-1.05-5.24-1.62-2.88-1-5.09-1.66-7.19-2.27l-2.39-.67-1.27-.34c-1.28-.37-2.48-.68-3.68-1l-1.83-.43 1.85-.36c1.83-.35 3.75-.81 5.69-1.37 1.78-.54 3.62-1.17 5.64-1.92 3.75-1.4 7.46-3 10.93-4.55l2.64-1.2c2.65-1.2 5.39-2.45 8-3.55 1.92-.79 3.64-1.45 5.27-2 2-.7 3.64-1.26 5.3-1.71a52.92 52.92 0 0 1 9.3-1.7 47.861 47.861 0 0 1 6.75-.28l-5.93-2.63-7.74-3.79c-.71-.33-1.41-.71-2.09-1.07l-7.49-4a31.558 31.558 0 0 0-12.61.89 83.24 83.24 0 0 0-8.7 2.93l-.73.28c-1.46.55-3.17 1.18-4.86 1.74a40.792 40.792 0 0 1-4.92 1.32 37.335 37.335 0 0 1-7.62.71 35.104 35.104 0 0 1-3.78-.22c-1.2-.14-2.44-.34-3.69-.6a58.42 58.42 0 0 1-7.26-2c-2-.73-4.21-1.65-6.86-2.9-3.32-1.52-6.51-3.35-9.59-5.12l-3.49-2c-.7-.38-1.39-.79-2.07-1.19l-1.16-.68a134.065 134.065 0 0 0-6.55-3.58l-5-2.45h1.77c8.57.08 17.17-1.73 25.49-3.49 7.09-1.49 13.78-2.9 20.38-3.21 1.34-.06 2.68-.07 4 0 1.32.07 2.6.14 3.85.23 1.891.166 3.77.44 5.63.82l-4.56-3.6-4.87-4.2.06.31-1-1-1.64-1.48-1.32-1.24a32.559 32.559 0 0 0-13.65-2 80.383 80.383 0 0 0-9.22 1.23l-.69.12a67.322 67.322 0 0 1-10.14 1.12 36.645 36.645 0 0 1-7.62-.72 43.862 43.862 0 0 1-7.13-2.19c-1.13-.45-2.28-1-3.43-1.51-1.15-.51-2.23-1.18-3.28-1.78-2-1.18-4-2.51-6.21-4.06-.91-.63-1.77-1.31-2.61-2l-.34-.27c-.95-.76-1.91-1.54-2.86-2.32l-1.53-1.27c-1.37-1.13-2.79-2.3-4.13-3.49-2.25-1.95-4-3.41-5.67-4.75l-2.93-2.31c-1-.79-2-1.54-3-2.23l-1.52-1.07 1.82.11Z"/>
    <path fill="#C0C37F" d="M977.46 618.64c-.4-1.59-.8-3.18-1.19-4.79-15.74-63.33-32.62-130.46-75.79-173.29-75.94-75.35-191.59-89.64-274.39-156l-.41-.33c32 47.79 51.9 105.93 85.69 152a249.993 249.993 0 0 0 84.32 73.43c31.74 16.81 67 26.44 99.82 41 32.82 14.56 62.67 35.07 81.95 67.98Z"/>
    <path fill="#B3B376" d="M976.27 613.85c-15.74-63.33-32.62-130.46-75.79-173.29-75.94-75.35-191.59-89.64-274.39-156 3 4.4 6 8.75 9 13.07 33.88 48 77.51 85.55 122.54 120 25.68 19.66 52 38.39 77.85 57.77 52.11 39.02 103.68 83.02 140.79 138.45Z"/>
    <path fill="#DE8B63" d="M719.32 323.92c12 7.46 25.75 12.34 39.07 17.05 11.7 4.14 22.75 8 32.57 13.56a85.34 85.34 0 0 1 14.54 10 79.813 79.813 0 0 1 9.49 9.25c-.92-3-1.82-6-2.7-9l-.9-3.09-1.47-5.88-.15 1-.76-4.12a44.153 44.153 0 0 0-5.14-13.5 42.086 42.086 0 0 0-4.41-6 54.616 54.616 0 0 0-5.49-5.48 106.75 106.75 0 0 0-11.83-8.38l-1.06-.68a107.675 107.675 0 0 1-13-9.62 51.051 51.051 0 0 1-4.27-4.37 59.042 59.042 0 0 1-3.57-4.76 68.73 68.73 0 0 1-5.67-10.38 83.408 83.408 0 0 1-3.7-11.17c-.48-1.83-.93-3.75-1.34-5.73-.36-1.67-.6-3.36-.83-5l-.12-.78c-.58-4.19-1-8.39-1.31-11.58-.19-2.22-.32-4.45-.46-6.67-.1-1.65-.2-3.29-.32-4.93-.12-1.64-.25-3.09-.37-4.63a162.635 162.635 0 0 0-2.11-18.36l-.54-2.84 1.75 2.3a118.984 118.984 0 0 0 12.27 13.51c4 3.78 8.28 7.39 12.44 10.89l8.5 7.14c2.67 2.22 4.84 4.09 6.83 5.88A122.415 122.415 0 0 1 797.37 270a66.828 66.828 0 0 1 5.78 8.26c.81 1.41 1.61 2.82 2.37 4.25.76 1.43 1.45 2.9 2.08 4.36a83.882 83.882 0 0 1 5.15 18.28 100.56 100.56 0 0 1 1 19.36l-.1 1.75c-.16 2.67-.32 5.43-.65 8.19-.36 3.23-.87 6.58-1.53 10a311.475 311.475 0 0 0 11.43 39.71c1 1.49 1.92 3 2.79 4.56-.45-2.69-.81-5.37-1.14-7.94-.25-2-.46-4.08-.63-6.08-.17-2-.18-3.9-.22-6.14a81.572 81.572 0 0 1 1.39-17.7 57.509 57.509 0 0 1 6.15-17.33 71.811 71.811 0 0 1 5.62-8.57 94.528 94.528 0 0 1 6.85-8c4.88-5.16 10.21-10 15.7-15l7.94-7.15c3-2.71 5.36-5 7.46-7.06 2.53-2.54 4.65-4.85 6.47-7.08a59.09 59.09 0 0 0 5.27-7.26l3.13-5.22-1.91 5.78c-.42 1.29-.81 2.65-1.17 4a38.672 38.672 0 0 0-.83 4c-.38 2.4-.68 5-1 8.15l-.31 4.09-.13 4.11c-.09 2.63-.2 5.46-.41 8.33l-.4 5.36c-.16 1.82-.36 3.66-.61 5.46-.25 1.8-.55 3.72-.89 5.54-.35 2.17-.67 3.94-1 5.56-.71 3.45-1.69 7.18-3 11.4a118.327 118.327 0 0 1-4.12 11.65c-.7 1.7-1.47 3.42-2.29 5.12-.82 1.7-1.59 3.35-2.46 5-1.66 3.18-3.54 6.42-5.75 9.92-3.93 6.14-8.35 12.53-13.91 20.12-6.37 8.6-8.41 19.21-10.39 29.47l-.1.49 6.29 11.79c.68 1.27 1.41 2.62 2.2 3.92l6.94 11.67c.5.84 1 1.66 1.58 2.48l.8 1.2a93.43 93.43 0 0 1 11.06 10.73c-.24-.59-.48-1.19-.71-1.79-.73-2-1.37-4-1.94-5.8-1.06-3.42-2.26-7.5-3.18-11.77a90.405 90.405 0 0 1-1.92-17.58 62.528 62.528 0 0 1 2.88-18.11 84.88 84.88 0 0 1 9.33-18.54c.93-1.43 1.93-2.93 3-4.44 1.07-1.51 2.12-2.95 3.2-4.41 2.06-2.76 4.14-5.44 6.62-8.61l1-1.29c4.13-5.27 8-10.25 11.63-15.29 2.07-2.94 3.77-5.57 5.19-8.06a65.99 65.99 0 0 0 3.87-7.95l2.37-5.79-1.07 6.16a46.571 46.571 0 0 0-.53 8.13c0 2.4.13 5 .37 8.06l2.08 16.11c.46 3.54.75 7.15.87 10.7.12 3.55.28 7.28.12 11.08-.06 1.9-.18 3.84-.35 5.75-.17 1.91-.29 3.94-.5 5.82-.43 3.86-1.11 7.94-2 12.13a120.421 120.421 0 0 1-6.59 21.49c-2.63 6.84-5.82 13.87-9.8 22.32a35.731 35.731 0 0 0-1.55 3.79c-.42 1.23-.79 2.53-1.11 3.87a59.153 59.153 0 0 0-1.33 8c-.24 2.42-.39 5.1-.46 8.2-.06 1.95 0 3.87 0 5.73 0 .68 0 1.35.05 2 .5.73 1 1.45 1.31 2.08l4.17 4.86c.8.93 1.62 1.89 2.48 2.78l9.89 10.65 10.36 10.35c1 1 2.07 2 3.12 3l3.92 3.64c2.08 1.27 4.14 2.64 6.11 4.1l1.19.86.82.6c-.43-.6-.86-1.2-1.27-1.82-1.33-2-2.62-4-3.81-6s-2.45-4.12-3.56-6.14l-.86-1.57-.77-1.61c-.52-1.07-1-2.15-1.51-3.24a78.034 78.034 0 0 1-5.68-16.69 66.216 66.216 0 0 1-1.27-8.92c-.09-1.42-.18-3-.13-4.58.05-1.58.15-3.17.32-4.73a81.49 81.49 0 0 1 5.13-20c2.64-6.81 5.82-13.45 8.86-19.67l4.69-9.51c1.79-3.64 3.16-6.57 4.32-9.23 1.43-3.25 2.55-6.13 3.43-8.8a61.49 61.49 0 0 0 2.28-8.5l1.07-6 .27 6.14c.38 8.43 3 15.76 5.77 23.53.82 2.3 1.66 4.67 2.44 7.05l.14.44c1 3.09 2.1 6.29 2.94 9.63.45 1.76.86 3.59 1.23 5.3s.82 3.58 1.16 5.4c.75 3.81 1.22 7.92 1.58 11.42.447 4.035.684 8.09.71 12.15.23 14.42-2.64 28.86-6.43 46.25-2.37 10.45.1 21 2.49 31.1l.07.32c14 11 29.36 21.88 45.74 32.31-.65-.65-1.28-1.31-1.9-2a81.232 81.232 0 0 1-6-6.83c-2-2.49-3.67-4.84-5.22-7.16-.83-1.25-1.63-2.52-2.37-3.75-.74-1.23-1.41-2.6-2.1-4a67.887 67.887 0 0 1-3.41-8.43 49.747 49.747 0 0 1-2.12-9.1 83.285 83.285 0 0 1 .14-20.72c.86-7 2.33-14 3.89-21.3l2.24-10.34c.87-4 1.5-7.17 2-10.05a82.911 82.911 0 0 0 1.38-18.23l-.27-5.75 1.61 5.52c.37 1.27.8 2.58 1.27 3.87.46 1.11 1 2.26 1.64 3.62 1 2.13 2.23 4.35 3.78 7l1 1.7 3.31 5c1.32 2 2.72 4.14 4.38 6.79a140.921 140.921 0 0 1 18.31 41.34l.12.47c.41 1.64.8 3.25 1.17 4.87.37 1.62.74 3.57 1.06 5.44.59 3.51 1.06 7.22 1.44 11.35l.5 5.84c.15 1.96.29 3.96.4 6 .24 4.26.42 8.73.56 12.52.1 2.728.47 5.438 1.12 8.09a58.186 58.186 0 0 0 2.54 7.72c.91 2.26 2 4.71 3.4 7.48.61 1.23 1.24 2.44 1.85 3.62l1.87 3.33c2.28 1.68 4.34 3.34 6.3 5.08 1.32 1.18 2.64 2.43 3.93 3.65l.29.27c4.68 4.16 9 7.75 14 9.61l.62.23-1.35 3.94-.65-.24c-5.79-2.13-10.63-6.23-15.11-10.26l-.27-.25c-1.29-1.22-2.61-2.47-3.92-3.63a84.941 84.941 0 0 0-5.33-4.34c-1.07-.2-2.18-.36-3.31-.48-1-.13-2.21-.28-3.49-.35-2.4-.141-4.81-.097-7.2.13-2.5.244-4.98.658-7.43 1.24a66.778 66.778 0 0 0-7.49 2.16 138.23 138.23 0 0 0-14.13 6.3l-2 1a161.6 161.6 0 0 1-3.27 1.56c-1.333.6-2.667 1.18-4 1.74a76.58 76.58 0 0 1-8.13 3A64.085 64.085 0 0 1 963 637c-1.38.08-2.77.13-4.18.13a79.372 79.372 0 0 1-8.65-.5c-9.22-.91-17.8-3.71-25-6.34l-3-1.14c-.84-.34-1.67-.7-2.5-1.06l-.44-.19c-2-.85-3.91-1.73-5.86-2.62l-6.92-3.18c-1.57-.72-3.2-1.47-4.76-2.27-7.27-3.64-15.19-7.21-23.57-10.61l-2.84-1.22 3.08-.15c3.15-.15 6.47-.47 9.89-1 2.84-.41 6-1 9.89-1.84 6.68-1.47 13.25-3.29 19.42-5 2-.55 3.9-1.12 5.85-1.69 4.36-1.27 8.87-2.59 13.21-3.7 3.39-.87 6.44-1.57 9.34-2.15l4.63-.87c1.59-.28 3.16-.52 4.66-.72a87.265 87.265 0 0 1 15-.7c4.792.073 9.57.555 14.28 1.44 4.537.874 9.018 2.016 13.42 3.42 1.46.49 2.93 1 4.39 1.6-16.32-10.23-31.86-21-46.3-32.12l.16.63-2.6-2.5-1-.74-.28-.11a56.096 56.096 0 0 0-5.66-1.91 48.408 48.408 0 0 0-6.44-1.23 51.417 51.417 0 0 0-6.85-.38 67.666 67.666 0 0 0-7.06.36 137.236 137.236 0 0 0-15.21 2.85l-5.59 1.23c-1.41.29-2.81.54-4.23.78a78.66 78.66 0 0 1-8.52 1 62.954 62.954 0 0 1-12.94-.62 70.898 70.898 0 0 1-12.25-3.22c-1.94-.68-3.93-1.47-5.91-2.33-1-.42-2-.86-2.93-1.32-.93-.46-1.87-1-2.8-1.47-3.47-1.88-7-4-10.82-6.54-3.12-2-6.07-4.26-8.93-6.46l-4-3.09c-2.39-1.86-4.87-3.78-7.26-5.72-3.94-3.25-7-5.69-9.92-7.91-1.1-.85-2.22-1.67-3.35-2.5-.6-.427-1.2-.867-1.8-1.32-1.78-1.34-3.48-2.57-5.19-3.74l-2.6-1.78 3.11.55c3.09.56 6.38 1 9.78 1.29 3.12.23 6.39.36 10 .39 6.75.07 13.55-.23 19.93-.54l4.87-.28c4.9-.29 10-.58 14.81-.7 3.49-.09 6.61-.08 9.51 0 3.53.11 6.47.24 9.35.53a90.254 90.254 0 0 1 15.66 3 82.064 82.064 0 0 1 10.77 3.65l-7.73-7.72-9.78-10.65c-.92-1-1.79-2-2.64-3l-9.32-10.88A52.806 52.806 0 0 0 860 486a137.661 137.661 0 0 0-15.45-.67h-1.31c-2.63 0-5.69 0-8.68-.19a71.976 71.976 0 0 1-8.54-.91 63.042 63.042 0 0 1-12.4-3.5 58.3 58.3 0 0 1-5.81-2.63c-1.79-.94-3.62-2-5.44-3.17a100.794 100.794 0 0 1-10.2-7.5c-2.75-2.38-5.62-5.15-9-8.72-4.29-4.39-8.19-9.2-12-13.85a506.693 506.693 0 0 0-4.27-5.23c-.88-1-1.71-2.08-2.54-3.13-.46-.587-.93-1.177-1.41-1.77-1.3-1.62-2.62-3.24-4-4.84-1.38-1.6-2.8-3.25-4.15-4.74l-6.33-6.87 2.77 1.1c13.42 5.32 28 7.67 42.18 9.95 12 2 23.41 3.78 34 7.29 2.14.71 4.25 1.5 6.29 2.36 2.04.86 4 1.8 5.91 2.7a82.987 82.987 0 0 1 8.36 4.69l-5-8.42-5.11-9.54-.09.51-.88-2.19-1.69-3.32-1.33-2.74c-5.07-4.78-12.06-8.73-20.22-11.45a137.112 137.112 0 0 0-15.23-3.63l-1.17-.23a115.331 115.331 0 0 1-16.6-4.38 61.526 61.526 0 0 1-11.54-5.74 74.683 74.683 0 0 1-9.88-7.77c-1.5-1.38-3-2.88-4.48-4.44-1.48-1.56-2.79-3.2-4.07-4.78-2.43-3.07-4.83-6.38-7.31-10.14-1-1.53-2-3.13-2.9-4.68l-.37-.62a519.383 519.383 0 0 1-3.1-5.38c-.54-1-1.08-1.94-1.63-2.91-1.47-2.61-3-5.31-4.38-8-2.35-4.41-4.21-7.78-6-10.9l-3.21-5.39c-1.11-1.86-2.24-3.64-3.34-5.31l-1.74-2.61 2.61 1.61Z"/>
    <path fill="#DEA189" d="M1005.05 60.65a158.818 158.818 0 0 0 26-8.91 137.76 137.76 0 0 0 7.15-3.36 162.08 162.08 0 0 0 44.85-33.13c2.1-2.19 4.15-4.45 6.1-6.77l.72-.85c18.54-22.17 32.07-50.75 36-79.83.54-4.187.89-8.373 1.06-12.56-1.31 2.52-2.61 5-3.93 7.39-10.19 18.58-21.26 33.32-40.26 41.58a62.14 62.14 0 0 1-6.11 2.34 81.08 81.08 0 0 1-8.6 2.38c-12.42 2.74-25.13 3.25-37.87 3.12-3.22 0-6.42-.1-9.64-.2-3.73-.09-7.48-.22-11.2-.33-16-.43-32.2-.47-48.08 1.55-2.54.32-5.067.7-7.58 1.14-2.89.48-5.78 1.06-8.65 1.73a160.06 160.06 0 0 0-33.32 11.92 81.576 81.576 0 0 0-4.89 2.46 224.873 224.873 0 0 0-40 27l-1.6 1.35-2.51 2.15c-19.32 16.75-36.38 35.89-53.05 55.31l-7.37 8.62c3.16-1.773 6.393-3.39 9.7-4.85 20.7-9.23 43.64-12.62 66.69-13.61 1.85-.09 3.73-.15 5.59-.2 6.07-.17 12.12-.18 18.13-.13 8.93.09 17.9.33 26.87.49 1.793.04 3.583.07 5.37.09 14.206.364 28.421-.06 42.58-1.27 1.953-.187 3.907-.4 5.86-.64a180.818 180.818 0 0 0 21.99-3.98Z"/>
    <path fill="#DE8B63" d="M1049.17 2.39c5.43-1.988 10.75-4.25 15.94-6.78l-34 56.13a137.76 137.76 0 0 0 7.15-3.36l33.64-55.54-.74-.35a132.89 132.89 0 0 0 20.53-13.7l-8.63 36.46c2.1-2.19 4.15-4.45 6.1-6.77l8.19-34.62a99.06 99.06 0 0 0 17.85-22.09c4.33-7.634 7.9-15.672 10.66-24 .54-4.187.89-8.373 1.06-12.56-1.31 2.52-2.61 5-3.93 7.39-3.12 9.3-6.64 18.56-11.56 26.93a93.742 93.742 0 0 1-15.59 19.71l-13.11-5.06a62.14 62.14 0 0 1-6.11 2.34l15.64 6a127.79 127.79 0 0 1-26 17.58 907.325 907.325 0 0 1-36.09-18.11c-3.22 0-6.42-.1-9.64-.2 13.42 7.26 27 14.18 40.73 20.76-4.72 2.23-9.31 4.11-13.57 5.68-7.18 2.63-14.5 4.89-21.91 6.77l-64.55-31.93c-2.54.32-5.067.7-7.58 1.14l65.49 32.36c-14 3.22-28.22 5.52-42.16 7.78l-6.22 1c-19.83-8.61-39.64-17.82-59.08-27.5a88.004 88.004 0 0 0-4.88 2.47c18.44 9.22 37.22 18 56.07 26.34C947 19.33 929.79 22.58 912.34 27l-.65-.12c-14.12-2.69-29-5.85-44.85-9.58l-1.6 1.35-2.51 2.15c14.08 3.35 27.34 6.26 40 8.78-8.94 2.51-17.88 5.37-26.64 8.67-26.04 9.75-48.3 22.5-66.41 37.89l-7.37 8.62c3.16-1.773 6.393-3.39 9.7-4.85 17.82-15.25 39.82-27.85 65.63-37.54 8.84-3.33 17.86-6.19 26.9-8.72A694.455 694.455 0 0 0 878.7 66.3c1.85-.09 3.73-.15 5.59-.2A721.933 721.933 0 0 1 912 31.64c18.5-4.8 36.84-8.19 53.54-11a1016.783 1016.783 0 0 0-36.25 45.82c1.793.04 3.583.07 5.37.09 12-16 24.56-31.77 37.48-47 1.847-.287 3.69-.587 5.53-.9 12.74-2.05 25.7-4.15 38.53-6.95l-39 53.57c1.953-.187 3.907-.4 5.86-.64l39.55-54.4c9-2.089 17.87-4.707 26.56-7.84Z"/>
    <path fill="#DEA189" d="M647.6 521.86a127.026 127.026 0 0 0 12 18.42 117.9 117.9 0 0 0 4 4.88 129.795 129.795 0 0 0 34.56 28.24c2.11 1.2 4.27 2.34 6.46 3.4l.8.39c20.86 10 45.69 14.85 69 12.14 3.333-.413 6.667-.967 10-1.66-2.21-.52-4.38-1-6.51-1.58-16.42-4.24-30-9.92-40.2-23a51.404 51.404 0 0 1-3-4.27 65 65 0 0 1-3.54-6.2c-4.58-9.09-7.49-18.86-9.9-28.76-.61-2.51-1.19-5-1.75-7.51-.67-2.92-1.31-5.85-2-8.76-2.83-12.52-6-25.07-10.7-37a110.12 110.12 0 0 0-2.38-5.66c-.94-2.14-2-4.27-3-6.36a127.262 127.262 0 0 0-15.82-23.49c-.94-1.12-1.897-2.223-2.87-3.31a180.474 180.474 0 0 0-28.84-25.66l-1.37-1-2.16-1.53c-16.81-11.68-35-21.12-53.37-30.22l-8.15-4c2 2.113 3.893 4.303 5.68 6.57 11.25 14.23 18.41 31.36 23.72 49 .44 1.42.86 2.87 1.27 4.3 1.32 4.67 2.53 9.36 3.68 14 1.69 6.94 3.27 13.95 4.92 20.94.32 1.39.66 2.79 1 4.18a308.005 308.005 0 0 0 9.4 32.77c.527 1.48 1.077 2.953 1.65 4.42a147.909 147.909 0 0 0 7.42 16.32Z"/>
    <path fill="#DE8B63" d="M701.5 544.57a133.396 133.396 0 0 0 8.41 11l-50.26-15.32a117.9 117.9 0 0 0 4 4.88l49.73 15.16.13-.64a105.745 105.745 0 0 0 14.68 13.21l-30 .51c2.11 1.2 4.27 2.34 6.46 3.4l28.47-.48a78.985 78.985 0 0 0 20.65 9.47 107.284 107.284 0 0 0 20.7 3.54c3.333-.413 6.667-.967 10-1.66-2.21-.52-4.38-1-6.51-1.58-7.83-.59-15.71-1.49-23.17-3.65a74.896 74.896 0 0 1-18.36-8.21l1.33-11.17a51.404 51.404 0 0 1-3-4.27l-1.58 13.32a101.919 101.919 0 0 1-18.78-16.71c2.06-10.53 4.37-21.08 6.92-31.57-.61-2.51-1.19-5-1.75-7.51-3 11.84-5.68 23.76-8.06 35.68-2.66-3.21-5-6.4-7.09-9.4a178.62 178.62 0 0 1-9.51-15.66l12-56.36a110.12 110.12 0 0 0-2.38-5.66l-12.16 57.19c-5.26-10.22-9.86-20.8-14.36-31.16-.667-1.547-1.333-3.09-2-4.63 2.77-17.08 6-34.27 9.67-51.25-.94-1.12-1.897-2.223-2.87-3.31-3.51 16.12-6.64 32.44-9.36 48.7-5.2-11.76-11.12-24.49-18-37.15v-.53c-.7-11.48-1.18-23.62-1.42-36.68l-1.37-1-2.16-1.53c.18 11.59.54 22.45 1.09 32.77-3.71-6.43-7.69-12.8-12-18.95-12.72-18.27-27-33-42.48-44l-8.15-4c2 2.113 3.893 4.303 5.68 6.57 15.35 10.81 29.46 25.39 42.08 43.49 4.33 6.21 8.32 12.64 12.08 19.14-10-4.82-20.147-9.35-30.44-13.59.44 1.42.86 2.87 1.27 4.3a571.9 571.9 0 0 1 32.19 14.66c7.37 13.41 13.63 27 19.1 39.36-14-6.747-28.23-13.08-42.69-19 .32 1.39.66 2.79 1 4.18 14.82 6.16 29.5 12.77 43.85 19.79.59 1.37 1.19 2.75 1.79 4.11 4.11 9.47 8.3 19.11 13 28.52l-49.35-19.69c.527 1.48 1.077 2.953 1.65 4.42l50 19.93a185.575 185.575 0 0 0 11.33 19.02Z"/>
    <path fill="#355D67" d="M1498.25 568.782c147.16-147.161 147.16-385.757 0-532.918-147.17-147.161-385.76-147.161-532.923 0-147.161 147.161-147.161 385.757 0 532.918 147.163 147.161 385.753 147.161 532.923 0Z"/>
    <path fill="#518189" d="M1239.32 160.526c-6.59 4.19-14.12 7-19.84 12.45a19.607 19.607 0 0 0-5.74 9.21c-1 3.92.29 8.44-2.16 11.95a5.795 5.795 0 0 1-1.77 1.774c-.71.456-1.51.752-2.35.866a5.267 5.267 0 0 1-2.43-.502 5.277 5.277 0 0 1-1.94-1.558 22.251 22.251 0 0 1-2.84-5.06l-3.09-6.63c-2-4.4-4.12-8.8-6.16-13.2-1.83-4-3.45-8.06-3.21-12.52.21-4.08 1.5-8 2-12 .32-1.967.26-3.978-.19-5.92a15.625 15.625 0 0 0-2.87-5.17 11.435 11.435 0 0 1-2.31-5.55c-.27-2.25-.19-4.53-.5-6.78a55.418 55.418 0 0 0-3.67-13c-1.74-4.34-3.83-8.53-5.93-12.7-1.89-3.77-3.88-7.54-7.2-10.25-6.12-5-14.53-6.29-19.93-12.35a12.644 12.644 0 0 1-2.88-4.73 12.72 12.72 0 0 1-.6-5.51 33.076 33.076 0 0 1 1.84-6.08c.63-1.86.98-3.799 1.06-5.76.19-3.52.46-7.17 3.72-9.24 1.51-.95 3.42-1.52 4.2-3.28.78-1.76.52-3.77.7-5.6.73-7.55 7.85-12.43 14.81-13.73 4.61-.86 9.3-.59 14-.32 4.85.32 9.71.32 14.55 0 2.47-.18 4.92-.45 7.37-.82 2.13-.32 4.41-.88 6.53-.18 1.84.61 3.2 2 4.63 3.25a19.448 19.448 0 0 0 5.39 3.26c8.56 3.53 18.22 2.92 27.17 4.78a37.32 37.32 0 0 1 11.08 4c3.31 1.9 6.67 4.72 8.17 8.32.71 2.114.96 4.353.73 6.57-.06 2.47-.13 4.93-.19 7.4-.14 5.054-.28 10.104-.41 15.15 0 .67.6 7.06 1.83 10.06 1.43 3.48 2.93 7.08 2.94 10.9 0 4.06-1.88 7.67-3.82 11.12a51.32 51.32 0 0 0-2.75 5.35 27.485 27.485 0 0 0-1.5 5.18c-.69 3.56-.87 7.18-1.22 10.77a37.157 37.157 0 0 1-2.06 10 17.781 17.781 0 0 1-2.5 4.41 28.44 28.44 0 0 1-4.53 4.22 21.358 21.358 0 0 0-4.15 4.75c-1.1 1.7-2.1 3.46-3.31 5.08a31.306 31.306 0 0 1-8.67 7.62Zm-110.21 195.43a3.175 3.175 0 0 0 1.29 2.12c.8.438 1.74.566 2.63.36.94-.203 1.91-.287 2.87-.25 1.01.138 2.02.349 3 .63 1.06.314 2.17.446 3.27.39 1.23-.178 2.44-.514 3.58-1a19.056 19.056 0 0 1 7.37-1.12.559.559 0 0 0 .48-.29c1.07-2-2.49-2.87-3.68-3.32-2.15-.81-4.28-1.71-6.46-2.44-.97-.32-2-.396-3-.22-.95.265-1.93.383-2.92.35-.35-.037-.7-.157-1-.35a1.81 1.81 0 0 1-.68-1.08 3.373 3.373 0 0 0-1.15-1.9c-1-.76-2.26-1-3.22-1.72-.55-.44-.46-.9-.39-1.55.06-.39 0-.787-.17-1.143a2 2 0 0 0-.78-.857 3.485 3.485 0 0 0-2.37-.43c-.97.307-2 .362-3 .16-1.5-.59-2.47-2.15-4.23-2.06-1.17.05-2.24.69-3.41.81-1.17.12-2.45.07-3.67.17a5.459 5.459 0 0 0-4.22 2 .321.321 0 0 0-.17-.013.364.364 0 0 0-.16.073c-.8.69-1.61 1.39-2.43 2.07-.82.68-1.74 1.31-2.6 2a.394.394 0 0 0-.14.15.467.467 0 0 0 .06.58c1.16 1.34 3.12.44 4.59.47 1.74 0 3.08 1.5 4.74 1.88 2.06.48 3.75-1 5.54-1.74a10.408 10.408 0 0 1 6-.8 6 6 0 0 1 2.25.805c.68.415 1.28.965 1.75 1.615 1.03 1.78.1 3.78.43 5.65Zm309 73.75a9.675 9.675 0 0 0-.44-3.16 2.687 2.687 0 0 0-1.01-1.014 2.677 2.677 0 0 0-1.4-.336l-3.66-.43-2.77-.33c.09-.052.18-.099.28-.14a.215.215 0 0 0 .06-.031.133.133 0 0 0 .04-.052.15.15 0 0 0 .02-.065v-.067a.163.163 0 0 0-.04-.059.125.125 0 0 0-.05-.043.174.174 0 0 0-.13-.013c-.41.067-.82.202-1.19.4a.653.653 0 0 0-.25.089.695.695 0 0 0-.19.181 5.588 5.588 0 0 0-1.92 2.44c-.6 1.834-1 3.729-1.19 5.65a8.985 8.985 0 0 1-.89 2.81 7.344 7.344 0 0 1-1.69 2c-1.33 1.13-2.91 1.91-4.33 2.9a10.017 10.017 0 0 0-3.65 4.29 9.437 9.437 0 0 0-.71 2.91 17.29 17.29 0 0 0 .24 3.52 16.72 16.72 0 0 1-.63 6.67c-.76 2.133-1.4 4.31-1.9 6.52-.19.944-.16 1.92.08 2.852.24.933.69 1.797 1.32 2.528a7.09 7.09 0 0 0 4.38 2.22c3.71.46 7-2 8.6-5.23.43-.877.77-1.799 1-2.75.22-1.071.52-2.124.9-3.15a13.351 13.351 0 0 1 3.51-4.33 24.772 24.772 0 0 0 4-4.44 21.24 21.24 0 0 0 2.57-5.46c1.2-4.29 1.63-8.759 1.27-13.2 0-1.26-.09-2.47-.18-3.66l-.05-.02Zm-168.34-271.98c-2.37-.42-5.15-.14-6.88 1.73a.475.475 0 0 0-.07.1.5.5 0 0 0-.27-.045.523.523 0 0 0-.26.105 29.207 29.207 0 0 0-3.49 3.42 7.535 7.535 0 0 0-2.15 3.71 3.814 3.814 0 0 0 1.28 3.51 7.468 7.468 0 0 0 3.25 1.44c2.77.61 5.71.63 8.18 2.19 2.06 1.3 3.57 3.33 5.72 4.51 1.18.667 2.53.954 3.88.82 1.56-.232 3.04-.798 4.36-1.66 2.5-1.363 4.46-3.52 5.59-6.13a7.98 7.98 0 0 0 .38-4.3 7.184 7.184 0 0 0-2.13-3.75 14.066 14.066 0 0 0-8.13-3.72 44.874 44.874 0 0 1-4.75-.76c-1.51-.41-2.98-.92-4.51-1.17Zm-31.63 259.35c-4.43-3.46-9.57-5.83-14.69-8.05-5.66-2.47-11.41-4.78-17-7.37a11.163 11.163 0 0 1-5.37-4.93 47.2 47.2 0 0 0-3.07-5.44 8.516 8.516 0 0 0-5.34-3.38c-2.6-.51-5.2-.43-7.66-1.58-4.49-2.11-7.64-6.19-11.06-9.64a11.972 11.972 0 0 0-6.24-3.81 17 17 0 0 0-7.42.8 30.373 30.373 0 0 1-6.72 1.4.547.547 0 0 0 .04-.397.578.578 0 0 0-.22-.333c-3-2.16-6.83-2.14-10.35-1.48a40.598 40.598 0 0 0-10 3.24 14.531 14.531 0 0 0-6.42 5.44 14.492 14.492 0 0 0-4.17-.41c-4.42-.26-7.9-3.42-11-6.32-3.1-2.9-6.22-5.86-8.31-9.56-.87-1.55-1.27-3.3-2.39-4.69-.9-1.1-2.83-2.34-2.61-3.92.31-2.34 2.25-5.23-.45-6.93-2.39-1.51-6.08-1.3-8.62-.34a8.37 8.37 0 0 0-3.36 2.35c-1.06 1.17-2 2.68-3.32 3.53-1.78 1.12-3.94.24-5.35-1.08a9.517 9.517 0 0 1-2.7-5.78 41.486 41.486 0 0 1-.1-6.78c.04-2.394.26-4.782.68-7.14.8-4 2.74-8 6.42-10.09 4-2.28 8.14 0 12.36-.69 2.18-.37 4.08-1.73 6.34-1.72 2.09.122 4.08.927 5.67 2.29 3.13 2.45 5 6 7.53 9 1.31 1.57 5.52 6.38 7.75 3.77.93-1.09.77-2.87.57-4.17a25.515 25.515 0 0 0-1.59-5.27c-1.27-3.37-2.49-7.05.07-10.14 3.12-3.76 10.1-5.44 10.72-11 .26-2.31-.9-4.21.76-6.23 1.17-1.42 2.11-2.56 2.35-4.46.24-1.9.07-3.95.84-5.87a10.406 10.406 0 0 1 3.42-4.46 8.562 8.562 0 0 1 4.33-1.8.567.567 0 0 0 .19-.05 6.634 6.634 0 0 0 7.66 1.5c1.68-.79 2.52-2.28 3.46-3.81a9.856 9.856 0 0 1 2.28-2.57 7.203 7.203 0 0 0 1.75-1.72c1.12-1.81.06-4.08.73-6 .88-2.6 3.19-4.36 5.49-5.68 2-1.11 4.36-1.91 6-3.43 1.64-1.52 1.77-3.82 2.24-5.76 1.15-4.67 2.69-9.45.75-14.13-1.71-4.13-5.07-7.22-8.31-10.16-3.48-3.17-7-6.46-8.4-11.09a34.225 34.225 0 0 0-1.95-5.92c-1.11-2.13-3-2.87-4.73-4.39-2.77-2.46-3.41-6.69-6.88-8.48a22.25 22.25 0 0 0-2.63-1 8.069 8.069 0 0 1-3.07-2.1c-1.36-1.35-2.77-1.26-4.34-.27-3 1.88-6.54 4.54-7 8.32-.15 1.25.29 2.56-.21 3.75-.59.982-1.11 2.004-1.55 3.06-.56 2.11.09 4.26.27 6.37.18 2.11-.28 5.19-2.92 5.47-1.82.2-3.63-.33-5 1.27s-1.79 4.62-4.59 3.38c-2.2-1-3-3.53-4.41-5.26-2.85-3.36-7.86-2.7-11.06-5.56-1.5-1.34-2.66-3-4.12-4.38a10.298 10.298 0 0 0-2.17-1.62c-1.06-.59-2.27-.86-3.33-1.46a5.546 5.546 0 0 1-2.11-2.243 5.473 5.473 0 0 1-.58-3.027c.19-2.17 2.13-3.39 2.57-5.42.13-.73.02-1.482-.3-2.15a9.963 9.963 0 0 1-1.06-4 12.93 12.93 0 0 1 2.34-7.08c2.39-3.69 5.88-6.47 8.48-10a7.097 7.097 0 0 0 1.62-5.08 16.96 16.96 0 0 0-2.45-6.2c-1.35-2.4-2.69-4.79-4-7.18-.83-1.48-1.81-3.16-3.52-3.74-2.16-.73-4.49.82-6.49 1.46a32.987 32.987 0 0 1-16 1c-2.49-.46-4.92-1.28-7.45-1.6-5-.64-9.32 1.86-14.15 2.57a30.746 30.746 0 0 1-24.94-7.64c-1.57-1.46-3-3-5.08-3.77-2.32-.86-4.84-.94-7.15-1.87a56.597 56.597 0 0 0-6.629-2.62 39.966 39.966 0 0 0-7.71-1c-5.35-.35-10.75-.7-16.09 0-2.73.37-5.38 1.29-8.12 1.54-2.74.25-5.44-.54-8.15-.86-4.46-.54-9 0-13.44-.69a15.178 15.178 0 0 1-6.44-2.34c-1.63-1.12-3.07-2.75-5.1-3.15-2.03-.4-3.58.57-5.2 1.47a7.595 7.595 0 0 1-3.21 1.14c-1.22.09-2.45-.11-3.66.08-2 .34-3.34 1.74-4.6 3.25a9.26 9.26 0 0 1-5.34 3.42c-2 .48-4.13.7-6 1.69a9.576 9.576 0 0 0-3.84 4.38c-1.13 2.26-2 4.69-2.9 7-1.06 2.65-2.13 5.3-3.19 8a59.028 59.028 0 0 0-2.76 7.15c-.56 2.23.09 4.47.84 6.59 1.38 3.88 4.19 9.52.64 13.13-1.33 1.36-3.49 1.6-4.58 3.26-1.09 1.66-.9 4.24-.73 6.15a24.588 24.588 0 0 0 4.94 12.29c1.51 2.12.43 3.74-.41 5.87-.53 1.33-.81 2.7.12 3.92a.725.725 0 0 0 .62.34 52.308 52.308 0 0 0 29.31-14.79c2-2 3.67-4.43 6.09-5.91 2.68-1.64 6-1.8 9-1.57a62.019 62.019 0 0 1 18.54 4.48 83.552 83.552 0 0 1 8.41 4.08c2.41 1.32 4.93 2.72 6.36 5.17 1.43 2.45 1.9 5.64 2.92 8.41a23.424 23.424 0 0 0 3.83 6.48c1.6 2 3.34 3.94 4.79 6.08a18.997 18.997 0 0 1 2.95 8.3 14.872 14.872 0 0 0 2.9 7.57c1.67 2.09 3.51 3.94 4.79 6.31 4.919 9.06 3.35 20.12 5.309 29.93.85 4.858 3 9.392 6.24 13.11 3.58 3.93 8.19 6.71 12.07 10.32a29.85 29.85 0 0 1 5.3 6.73 36.634 36.634 0 0 0 4.6 6.57c3.35 3.58 7.55 6.18 11.36 9.22 2.01 1.53 3.82 3.3 5.4 5.27a30.118 30.118 0 0 1 3.64 7.4 15.49 15.49 0 0 0 4.62 6.48 33.241 33.241 0 0 0 7.64 4.44 43.226 43.226 0 0 0 17.15 3.58c5.88 0 11.91-.53 16.25 4.21 1.92 2.11 3.38 4.59 5.25 6.73a33.713 33.713 0 0 0 5.78 5.18 34.149 34.149 0 0 0 19.38 6.44v1.4a21.27 21.27 0 0 1-.91 6.34 19.981 19.981 0 0 1-2.83 5.65c-1.09 1.51-2.56 2.82-3.25 4.6-.78 2 0 4 0 6.05s-1.49 3.63-1.61 5.62c-.12 1.99 1.21 3.91 2.28 5.6 1.32 2.07 2.63 4.15 3.94 6.22l7.88 12.44a33.849 33.849 0 0 0 3.54 4.88 17.44 17.44 0 0 0 4.32 3.26c3.18 1.81 6.94 3.32 8.34 7 .65 1.958.91 4.023.76 6.08-.07 2.3-.24 4.59-.37 6.88-.27 4.77-.53 9.54-.81 14.31a67.195 67.195 0 0 1-.74 7.22 45.462 45.462 0 0 1-1.8 6.68 75.32 75.32 0 0 0-3.28 13.4c-1.35 9.45-2.12 19-3.14 28.48-.95 8.87-2.4 18.13.25 26.85 2.2 7.2 7.7 13.73 15.51 14.81 1.75.244 3.54.166 5.26-.23a.688.688 0 0 0 .29-.185c.08-.086.14-.19.16-.304a.669.669 0 0 0 0-.344.817.817 0 0 0-.18-.297 18.772 18.772 0 0 1-5.74-11.806c-.42-4.499.79-9 3.42-12.674 1.35-1.79 3.17-3.87 2.63-6.3-.25-1.14-1.09-2-1.49-3a2.526 2.526 0 0 1 .01-1.515c.15-.493.45-.927.86-1.245 1.49-1.51 3.39-2.51 4.31-4.52.92-2.01.87-4.49 1.43-6.71.69-2.77 2.75-4.86 4.7-6.82a67.153 67.153 0 0 1 6.43-5.68c2.18-1.69 4.57-3.08 6.79-4.72 1.69-1.24 3.15-2.88 3.11-5.11 0-2.6-2.1-4.87-1.74-7.5.34-2.45 2.52-4.23 4.59-5.29 2.55-1.31 5.39-2 7.81-3.54a17.767 17.767 0 0 0 4.75-4.71c2.85-4 4.06-8.77 6-13.22a12.029 12.029 0 0 1 4.5-5.74c2.31-1.37 5.13-1.52 7.6-2.49 8.53-3.36 13.32-12.53 14.3-21.25.32-2.77.13-5.68 1-8.36.87-2.68 2.83-4.55 4.44-6.68a11.96 11.96 0 0 0 2.81-6.75c.11-2.55-1.36-4.4-3.27-5.91v.03Zm-154.34-273.52c1.06.349 2.2.442 3.3.27 1.16-.217 2.33-.311 3.51-.28.76.091 1.5.296 2.19.61 3.26 1.48 5.72 4.37 9.22 5.4 2.05.515 4.21.414 6.2-.29a50.161 50.161 0 0 1 6-1.86 7.325 7.325 0 0 1 5.32 1.06 7.164 7.164 0 0 1 3 4.16c.2 1.151.68 2.236 1.39 3.16.75.679 1.47 1.397 2.14 2.15a8.572 8.572 0 0 1 1.19 5.57c-.14 2.48-.81 4.89-.82 7.38 0 2.223.63 4.4 1.81 6.28a23.273 23.273 0 0 0 4.21 4.8c.77.7 1.57 1.37 2.36 2 .83.726 1.73 1.36 2.69 1.89a6.575 6.575 0 0 0 6.36-.18 19.235 19.235 0 0 0 4.9-4.29c1.44-1.63 2.72-3.64 2.36-5.91a22.02 22.02 0 0 0-1.18-3.24 7.63 7.63 0 0 1-.35-2.42c0-3.62 1.64-7.09 1.79-10.74a8.201 8.201 0 0 0-1.35-5c-1.26-1.77-3.18-2.78-4.91-4-3-2.08-4.55-5.39-5.9-8.65-1.43-3.47-2.71-7.09-5.13-10s-5.74-4.5-9.11-5.9c-3.37-1.4-6.75-2.59-9.35-5a13.167 13.167 0 0 1-1.77-2.07c-.59-.928-1.32-1.76-2.16-2.47a9.526 9.526 0 0 0-5.6-1.76c-1.7-.029-3.41.149-5.07.53a.852.852 0 0 0-.7-.1c-.91.22-1.81.5-2.69.8-1.49.43-2.89 1.124-4.13 2.05-1.42 1.19-2.45 2.95-4.34 3.49-1.11.32-2.27-.06-3.4-.11a4.002 4.002 0 0 0-2.82.87 2.64 2.64 0 0 0-.84 1.384 2.63 2.63 0 0 0 .12 1.616 9.66 9.66 0 0 1 1 2.53c.03.711-.11 1.418-.42 2.06a20.12 20.12 0 0 1-1.25 2.3 13.183 13.183 0 0 0-2.18 5.05 6.76 6.76 0 0 0 1.02 4.179 6.742 6.742 0 0 0 3.34 2.711l.05-.03Zm331.54 252.94c5.07-5.86 11.19-11.07 15.11-17.82a25.945 25.945 0 0 0 3.52-10.05.435.435 0 0 0-.03-.225.391.391 0 0 0-.12-.19.465.465 0 0 0-.19-.116.515.515 0 0 0-.23-.019c-3.4-3.22-8.5-.58-12.46-.2-5.39.52-9.49-3.95-12.89-7.52a15.427 15.427 0 0 1-4.19-7.59 29.9 29.9 0 0 0-2.1-7.11c-2-4.09-5.15-7.45-7.75-11.15a23.733 23.733 0 0 1-3.31-6.11c-.85-2.53-.62-5.21-1.31-7.76-.69-2.55-2.45-4.43-4.21-6.25-2.19-2.28-4.39-4.54-6.58-6.82-1.85-1.92-3.64-4-6.55-3.87-2.68.11-5 1.69-7.36 2.88a39.828 39.828 0 0 1-16.78 4.66 28.09 28.09 0 0 1-15.21-3.75 22.952 22.952 0 0 1-5.78-4.85c-1.57-1.86-2.87-4-4.75-5.58-4.49-3.79-10.16-2.06-15.07-.15a59.762 59.762 0 0 1-17.39 4.22c-2.8.21-5.59 0-8.38.14-2 .11-4.2.52-5.63 2-1.43 1.48-1.46 3.89-1.55 6a4.63 4.63 0 0 1-.91 3.11 7.22 7.22 0 0 1-3.08 1.44 7.19 7.19 0 0 0-4.5 4.74 26.352 26.352 0 0 1-3 6c-2.57 3.62-5.92 6.61-8.56 10.17-2.84 3.84-4.43 8.23-3.64 13 .92 5.59 4.3 10.42 7.49 15l5.4 7.69a69.779 69.779 0 0 0 5.26 7.15c3.57 3.88 8.55 4.12 13.45 3.29 2.6-.44 5.16-1.11 7.77-1.51a28.31 28.31 0 0 1 8.86.07c5.78.94 11.21 3.3 16.42 5.87 2.36 1.17 5.3 2.24 7.1 4.23.89.999 1.4 2.283 1.42 3.62 0 1.55-.69 2.88-1.18 4.31-1.87 5.44 2.45 10.54 5.17 14.86 2.81 4.48 6 9.64 5.58 15.15-.2 2.81-1.66 5.06-2.83 7.54a13.939 13.939 0 0 0-1.2 7.92 32.545 32.545 0 0 0 2.51 8.24c1.28 3 2.62 6 3.93 9 2.56 5.84 5.11 11.677 7.66 17.51l3.84 8.75c.63 1.46 1.27 2.92 1.91 4.38a19.968 19.968 0 0 0 1.84 3.82c1.52 2.11 4 2 6.33 1.56a33.721 33.721 0 0 0 7-2.22 36.14 36.14 0 0 0 12-8.59 35.16 35.16 0 0 0 4.35-5.87c.6-1.059 1.27-2.078 2-3.05.9-1.062 2.01-1.93 3.25-2.55 2.3-1.24 4.12-2.5 5.26-4.94a62.159 62.159 0 0 0 2.72-7.6c1.58-5 3-10.07 5.64-14.64a39.684 39.684 0 0 1 4.78-6.33 17.133 17.133 0 0 0 4.06-6.83c1.38-5.18-.36-10.54-1-15.69-.6-4.123.01-8.331 1.74-12.12a40.904 40.904 0 0 1 6.35-9.25Zm360.64-254.12c-4.26-3.18-10.34-4.26-15.3-5.86-13.36-4.3-26.67-8.91-40.21-12.65a160.439 160.439 0 0 0-39.69-5.64c-13.71-.28-27.68.16-41-3.37-6.64-1.75-12.92-4.55-19.21-7.25-6.29-2.7-12.57-5.21-19-7.58a356.433 356.433 0 0 0-39-12.21c-11.92-2.92-23.79-3.51-35.28 1.37-10.32 4.38-19.06 11.73-27 19.52-4.31 4.23-8.26 8.81-12.56 13-5 4.94-11.21 7.16-17.79 9.29a188.314 188.314 0 0 1-20.63 5.43c-6.85 1.39-13.74 2.11-20.65 3.06a28.38 28.38 0 0 0-15.22 6.47c-4.75 4-9 9.12-15.25 10.68-1.59.424-3.25.506-4.88.24-2.36-.44-2.18-1.14-2.07-3.18l.6-10.82c0-.15-.04-.298-.12-.426a.788.788 0 0 0-.32-.304c-10-4.56-21-9.08-32.18-8.45a26.363 26.363 0 0 0-14 4.73c-5 3.66-8.67 9.1-12.5 13.94l-13.33 16.87-6.21 7.85c-1.71 2.16-4.18 4.5-5.15 7.15-1.87 5.16 3.81 9.8 6.83 13.15l6.74 7.49c1.12 1.24 2.24 2.49 3.37 3.73a26.08 26.08 0 0 0 3.54 3.87c3.41 2.46 7.12-1.63 8.21-4.58 1.86-5.06-1.37-11.5 4.43-14.71 1.92-1.07 4.12-1.76 5.6-3.48 1.7-2 1.81-4.62 2.89-6.89.46-1 3.38-4.68 4.08-1.45a5.39 5.39 0 0 1-.25 2.11c-.49 2.12-1.57 4-1.61 6.24a9.593 9.593 0 0 0 1.67 5.612 9.67 9.67 0 0 0 4.61 3.608c2.28.84 4.75.94 7.09 1.57 2.07.55 3.69 1.52 3.12 3.94a13.81 13.81 0 0 1-3 5.34c-2 2.47-4.25 4.8-6.37 7.19-2.12 2.39-4.59 5.9-8 6.85-2.79.78-5.77-.25-8.55.72-3 1-4.85 3.81-8.31 3.88-3.46.07-6.4-1.19-9.79-.68a24.118 24.118 0 0 0-8.68 3.42c-5.85 3.54-10.86 8.28-16.71 11.83-3 1.83-5.91 3.41-9.49 3.53-1.73.06-4.18-.29-5.7.79a2.818 2.818 0 0 0-.71 3.6c.71 1.32 2.27 1.9 3.72 2.24a7.862 7.862 0 0 1-3.68 3.29.816.816 0 0 0-.35.503.805.805 0 0 0 .09.607c1.36 2.44 4.52 3.5 5.65 6 2.31 5.07-7.23 4.68-10 5-3.64.44-10.11.23-8.38 5.67.34 1.06.94 2 1.25 3.12.49 1.75 0 3-.3 4.63a6.558 6.558 0 0 0-.07 2.89c.2.957.6 1.858 1.18 2.64 2.63 3.46 8.41 5.4 12.53 5.88 10 1.14 11.5-11 18.49-15.09 2.75-1.61 6-1.26 9.09-1.19l10.81.24c3.46-.05 6.92.08 10.37.39 3.53.45 5.62 1.88 8.25 4.11 3.57 3 6.8 1.64 10.48-.39 2.46-1.35 5.32-2.79 7.65-.36 1.85 1.94 2.44 4.8 3.9 7a16.428 16.428 0 0 0 5.07 4.76 16.532 16.532 0 0 0 6.59 2.24c2.09.16 4.19-.019 6.22-.53 2.63-.52 4.33-.33 6.23 1.59a13.393 13.393 0 0 1 3.22 5.79c.83 3 .11 6.11.69 9.15s2.31 6.06 3.7 8.92l9.75 20.05c1.47 3.04 2.94 6.077 4.43 9.11 1.59 3.28 2.94 7.33 5.14 10.26 3 4 8.52 2 12.42.77a56.47 56.47 0 0 0 18.17-9.8c4-3.18 8.48-7.59 7.32-13.19-1.37-6.7-8-4.93-12.93-6.37-3.27-1-5.94-3.3-8.22-5.74-2-2.14-6.68-6.61-5.12-9.89.72-.2.8-.85 1.5-1.3 2.26-1.45 4.89.66 6.46 2.1 2.64 2.4 5 3.92 8.62 4.31 4.18.44 8.23 0 12.34 1.16 4 1.11 7.76 2.85 11.91 3.21 4.53.38 9.13-.74 11.89 3.82 1.55 2.56 2.19 5.6 4.09 8 2.15 2.68 5.47 3.42 8.38 5 4.46 2.37 4.63 7.83 5.6 12.27.78 4.347 1.83 8.641 3.13 12.86 1 2.76 2.71 7.31 5.77 8.34 2.68.91 4-1.94 5-3.9 1.68-3.52 2.85-7 2.33-10.92-.28-2.11-.88-4.32-.2-6.4.84-2.56 3.69-3.94 5.8-5.34 3.75-2.5 7.66-4.86 11.25-7.58 2.91-2.19 4.69-5.59 7.62-7.68a3.995 3.995 0 0 1 2.89-1c1.62.32 1.43 1.31 1.53 2.52a5.638 5.638 0 0 0 1.18 3.07c2.29 3 6.32 3.94 7.71 7.72.77 2.12.91 4.38 1.87 6.45a15.17 15.17 0 0 0 2.9 4.22c6.29 6.45 19.8 5.19 22.69 15 .06.165.16.309.3.409.15.101.32.154.49.151 1.01.034 2.02-.07 3-.31l.15.13a41.842 41.842 0 0 1 6.82 6.81c1.82 2.49 3 5.35 4.74 7.91a16.944 16.944 0 0 0 6.53 5.87 37.422 37.422 0 0 0 8.47 2.79c3.49.8 7 1.55 10.5 2.32 3.5.77 7.09 1.77 10.72 1.76 6.74 0 12.93-3.15 19.16-5.32.78-.27 1.57-.51 2.36-.73a.477.477 0 0 0 .27-.187c.07-.09.11-.2.11-.313a.512.512 0 0 0-.11-.313.481.481 0 0 0-.27-.187c-3.21-.89-6.57-.53-9.82-.11a75.52 75.52 0 0 1-9.64.71 63.112 63.112 0 0 1-18.85-2.89 58.437 58.437 0 0 1-8.9-3.55 5.169 5.169 0 0 1-2.88-2.71c-.46-1.44 0-3-.16-4.47-.28-2.81-2.67-4.45-5.1-5.4-1.32-.52-2.7-.91-4-1.55a7.953 7.953 0 0 1-1.74-1.18c-.54-.54-1.02-1.129-1.45-1.76-.33-.44-.69-.84-1-1.24.06-.07.13-.14.19-.22a9.67 9.67 0 0 0 1.35-2.22c1.09.86 2.16 1.73 3.24 2.59l1.44 1.14c.45.406.93.781 1.43 1.12.19.132.42.202.65.202.23 0 .45-.07.64-.202a1.816 1.816 0 0 0 .56-1.34c.52-4.36-3.2-7.91-5.78-10.94l-.25-.3c.19-.69.41-1.39.68-2.11 1.18-3.1.6-5.45-1.63-7.85-1.34-1.44-3.11-2.71-3.84-4.62-.7-2-.58-4.197.33-6.11 1-2.06 3-2.26 5-2.81 2-.55 3.86-1.11 5.77-1.76a54.91 54.91 0 0 0 9.84-4.31c6.22-3.58 11.2-9 12.5-16.25 1.79-10-2.82-20.16 0-30.05a13.295 13.295 0 0 1 9.39 4.275 13.312 13.312 0 0 1 2.74 4.499c.6 1.666.86 3.436.77 5.206 0 .174.06.343.17.479.11.135.26.231.43.271 3.4.39 5.41-2 6-5.14.81-4.14-.61-7.48-2.09-11.23a18.888 18.888 0 0 1-1.57-6.78c0-3.88 2.21-5.28 5.95-5.25a11.69 11.69 0 0 0 6.62-1.48 33.847 33.847 0 0 0 6.15-5.34c7.43-7.39 15.72-16.84 16.05-27.92.06-2.376-.3-4.745-1.05-7-1.34-4-3.47-7.55-.25-11.44 4-4.81 10.33-8.37 16.05-10.65a44.554 44.554 0 0 1 17.94-3.51c7.34.3 6.34 7.94 6.21 13.22-.08 3.45.75 8 3.79 10.09.66.44 1.41.731 2.2.854.79.123 1.59.074 2.35-.142a5.56 5.56 0 0 0 2.09-1.113 5.508 5.508 0 0 0 1.42-1.879c1.82-3.53 1.45-7.9 1.83-11.73a21.046 21.046 0 0 1 6.61-12.8c7.1-7 16.61-10.85 24.79-16.35a67.108 67.108 0 0 0 22.55-25.34c2.29-4.6 2.87-9.82-1.64-13.17Zm-87.27 111.67a14.336 14.336 0 0 1-2.58 2.68c-1 .88-2 1.76-3.12 2.56-1.06.816-2.2 1.511-3.42 2.07-1.24.55-2.53.94-3.79 1.42a41.04 41.04 0 0 0-7.29 3.87c-1.1.69-2.25 1.34-3.31 2.1a4.035 4.035 0 0 0-1.81 2.41c-.21 1.23.56 2.2.94 3.3.38 1.1-.13 2.43.21 3.63.1.48.38.906.77 1.198.39.291.88.427 1.37.382a3.326 3.326 0 0 0 2.24-2.22 5.49 5.49 0 0 1 .77-1.47c.43-.51 1.08-.63 1.63-1 .42-.312.8-.682 1.12-1.1.44-.479.97-.861 1.56-1.12 1.21-.444 2.45-.788 3.71-1.03 1.44-.35 2.89-.66 4.35-.91.65-.12 1.31-.22 2-.32a9.575 9.575 0 0 0 1.91-.38c.5-.169.95-.446 1.32-.81.44-.45.76-1 1.2-1.45a8.817 8.817 0 0 1 3.08-1.4 6.14 6.14 0 0 0 2.71-2.13c1.51-2.06 1.84-4.65 3-6.9a19.83 19.83 0 0 0 1.77-3.41c.3-1.32.27-2.693-.08-4-.49-2.22-1.46-4.39-1-6.7.08-.476.25-.932.51-1.341.25-.408.59-.762.98-1.039a.337.337 0 0 0 .14-.2.337.337 0 0 0-.04-.24 7.16 7.16 0 0 0 3.37-1 6.03 6.03 0 0 0 2.42-2.39c.13-.25.2-.528.2-.81 0-.282-.07-.56-.2-.81-.27-.47-.81-.67-.94-1.22-.13-.55-.06-1-.22-1.54-.08-.26-.23-.498-.42-.694a1.747 1.747 0 0 0-.68-.436c-1-.35-2.06.14-3.06-.16-1-.3-2-1-3.07-.59-.43.221-.78.571-1 1.001-.23.431-.31.92-.24 1.399.04.493.04.988 0 1.48a3.54 3.54 0 0 1-.54 1.44 3.46 3.46 0 0 1-1.12 1.06c-.48.3-1.07.32-1.54.61-.21.143-.38.337-.49.565-.12.228-.17.481-.16.735.01.209-.02.418-.07.62-.17.253-.38.468-.64.63-1.91 1.61-.67 4-.61 6.1a19.311 19.311 0 0 1-.57 4 9.256 9.256 0 0 1-1.27 3.56Zm12.2 203.35c.51-2.18 1.18-4.46.8-6.71a6.15 6.15 0 0 0-1.42-3 14.523 14.523 0 0 0-2.71-2.22 12.048 12.048 0 0 1-2.87-2.74c-.78-1.1-1.43-2.28-2.19-3.4-3-4.47-7.18-7.91-11.14-11.46a38.045 38.045 0 0 1-3-2.82 7.1 7.1 0 0 1-1.13-1.61c-.31-.7-.56-1.422-.77-2.16a14.2 14.2 0 0 0-3.75-5.53c-1.46-1.49-3-3-3.59-5.08a.552.552 0 0 0-.12-.207.565.565 0 0 0-.68-.093 6.645 6.645 0 0 0-2.87 3 6.102 6.102 0 0 0-.59 2c-.1.82 0 1.64 0 2.46a3.394 3.394 0 0 1-.6 1.875c-.38.55-.92.974-1.55 1.215a5.42 5.42 0 0 1-4 .05 15.417 15.417 0 0 1-4.67-3 .335.335 0 0 0-.23-.086c-.08 0-.17.031-.23.086a12.663 12.663 0 0 0-3.94-5.23 5.012 5.012 0 0 0-2.91-.87c-1.46.158-2.88.585-4.18 1.26-1.39.58-2.8 1.13-4.17 1.74-.54.198-1.02.533-1.39.974-.37.44-.62.97-.73 1.536a4.063 4.063 0 0 1-.52 1.59 2.63 2.63 0 0 1-1.11.84c-.96.344-1.99.437-3 .27-2.42-.33-4.91-1.68-7.35-.68-2 .8-2.75 2.77-3.62 4.52a6.72 6.72 0 0 1-1.64 2.36c-1 .83-2.43.82-3.58 1.39-2 1-2.81 3.3-3.93 5.1-2.64 4.25-8.15 4.82-12 7.44a9.797 9.797 0 0 0-4.22 5.22c-.69 2.45.44 4.6 1.78 6.59a13.87 13.87 0 0 1 1.82 3.36c.42 1.336.6 2.733.54 4.13 0 2.89-.76 5.71-1.06 8.57-.3 2.86-.21 5.6 1.18 8a7.657 7.657 0 0 0 5.16 3.95c2.36.38 4.33-.87 6.26-2a8.916 8.916 0 0 1 3.19-1.38c1.38-.057 2.75.058 4.1.34a6.277 6.277 0 0 0 3.82-.79c1.22-.69 2.36-1.54 3.54-2.29a25.388 25.388 0 0 1 7.56-3.46c2.8-.581 5.72-.277 8.34.87 2.83 1.12 5.56 2.51 8.31 3.79a53.638 53.638 0 0 1 7 3.62c2.3 1.433 4.2 3.43 5.51 5.8 1.35 2.25 2.58 4.62 4.76 6.19a7.17 7.17 0 0 0 3.39 1.4 7.221 7.221 0 0 0 3.59-.74 5.063 5.063 0 0 1 2.06-.42c.8 0 1.58.22 2.37.31 1.18.14 2.38.12 3.55-.06a14.1 14.1 0 0 0 6.36-2.67 15.843 15.843 0 0 0 4.51-5.84c.55-1.218 1.22-2.38 2-3.47.69-.91 1.45-1.76 2.22-2.6a21.299 21.299 0 0 0 3.83-5.16c.44-.941.69-1.961.72-3a10.92 10.92 0 0 0-.79-3.74 10.534 10.534 0 0 1-.67-3.85c.1-1.175.3-2.34.6-3.48h.05Zm38.9 41.51c.03-.499 0-1-.1-1.49a3.012 3.012 0 0 0-.8-1.22 7.791 7.791 0 0 0-2.82-1.45c-.89-.34-2-1-2.16-2a.975.975 0 0 0 .18-.571.977.977 0 0 0-.18-.571.967.967 0 0 0-.47-.367c-.19-.071-.4-.082-.6-.031-1 .26-1.11 1.24-1.55 2-.24.376-.54.713-.89 1-.33.318-.6.703-.77 1.13-.37.89-.33 1.87-.61 2.79-.37.884-.83 1.731-1.36 2.53-.4.77-.59 1.634-.54 2.5.06.815.31 1.605.73 2.301a5.1 5.1 0 0 0 1.72 1.699c.74.43 1.54.76 1.51 1.75-.2.801-.2 1.64 0 2.44.2.375.51.675.89.856.38.18.81.231 1.22.144a3.928 3.928 0 0 0 2.17-1.49 42.916 42.916 0 0 0 3.2-5 27.79 27.79 0 0 1 1.83-2.3c.31-.315.54-.693.69-1.107.15-.414.21-.855.17-1.293a1.807 1.807 0 0 0-.6-1.16c-.4-.46-.88-.51-.91-1.09h.05Zm-10.82 13.54a3.219 3.219 0 0 1-.35-1c.01-.434.06-.866.15-1.29a2.11 2.11 0 0 0-.44-1.472c-.33-.418-.8-.699-1.32-.788-.43-.067-.88.018-1.26.24a3.726 3.726 0 0 0-3.07.92 3.39 3.39 0 0 0-1 1.4c-.25.66-.17 1.41-.48 2-.49 1-1.6 1.65-2.39 2.44-.44.45-.78.985-1 1.57-.28.71-.41 1.47-.75 2.15-1.21 2.5-3.73 3.53-6 4.74a7.26 7.26 0 0 0-2.76 2.22 11.68 11.68 0 0 0-.74 1.69c-.3.6-1.06.79-1.53 1.24-.37.455-.64.99-.78 1.564a3.957 3.957 0 0 0-.01 1.746c.03.651.19 1.29.46 1.88a1.584 1.584 0 0 0 1.52.69c.73 0 1.46-.23 2.19-.29.83-.07 1.67-.07 2.5 0 1.36.13 2.88.68 4.2.09 1.32-.59 1.45-2 2.33-3 .48-.52 1.07-.93 1.54-1.46.44-.527.8-1.113 1.08-1.74a42.238 42.238 0 0 1 1.94-4 21.561 21.561 0 0 1 2.7-3.59c1.58-1.69 4.63-3.56 4.08-6.28a7.084 7.084 0 0 0-.86-1.67h.05Zm-40-15.58c-.89-.039-1.77.14-2.57.52l-2.74 1.12a46.474 46.474 0 0 0-4.93 2.16c-1.33.75-2.89 1.86-3 3.54a6.517 6.517 0 0 0 1.3 4.15c.45.545 1.04.953 1.71 1.18.83.2 1.65.451 2.45.75 1.55.76 2.84 2 4.53 2.44a3.8 3.8 0 0 0 4.14-1.18c1.22-1.53 1.24-3.5 1.11-5.36-.07-1.07-.15-2.14-.13-3.21.02-1.07.16-2.23.17-3.35a.044.044 0 0 0 0-.049c0-.016-.01-.031-.02-.045 0-.013-.02-.024-.03-.032-.02-.008-.03-.013-.05-.014.51-1.23-.79-2.48-1.97-2.62h.03Zm-62.13-147.09c-.38.744-.6 1.557-.66 2.39a3.323 3.323 0 0 1-1.12 1.82c-1.07 1-2.42 1.55-3.3 2.72-.88 1.17-1.37 2.95-2.68 3.92a12.833 12.833 0 0 1-4.07 1.6 7.021 7.021 0 0 0-3.84 2.16c-.4.728-.62 1.547-.62 2.38-.14.826-.36 1.634-.68 2.41a8.65 8.65 0 0 0-.82 4.67c.24.756.63 1.457 1.15 2.061a5.91 5.91 0 0 0 1.85 1.459 20.558 20.558 0 0 0 4.74 2.49c2.7.82 5.6.65 8.18-.48a11.646 11.646 0 0 0 6-5.56c1.29-2.69 1.54-5.71 2.34-8.56.33-1.367.92-2.655 1.75-3.79.47-.6 1.13-1 1.57-1.65.2-.272.32-.589.36-.92.04-.332-.01-.669-.13-.98-.56-1.4-2-2.19-2.51-3.64-.51-1.45-.51-3.3-2-4.37a2.224 2.224 0 0 0-.99-.451 2.21 2.21 0 0 0-1.09.081.513.513 0 0 0-.2.136.56.56 0 0 0-.11.214l-.45-.13a.148.148 0 0 0 0-.13c-.53-1.18-2.1-.7-2.7.15h.03Zm87.85 36.68c-.52-.255-1-.593-1.42-1a2.994 2.994 0 0 1-.73-2 5.84 5.84 0 0 0-.53-2.36 3.657 3.657 0 0 0-1.24-1.34 9.945 9.945 0 0 0-3.64-1.25 11.6 11.6 0 0 1-4-1.3c-1.32-.83-2.33-2.07-3.66-2.9a6.822 6.822 0 0 0-5.13-.61c-.98.213-1.99.3-3 .26-.94-.11-1.86-.311-2.76-.6a11.593 11.593 0 0 0-5.4-.66c-1 .18-1.91.55-2.9.64a4.468 4.468 0 0 1-2.53-.56c-1.48-.78-2.65-2-4.16-2.76a5.01 5.01 0 0 0-4.06-.35 3.04 3.04 0 0 0-1.39 1.17v.06c-.32.28-.21.92.31.88 1.75-.14 3.2 1.1 4.21 2.41 1.01 1.31 1.8 2.9 3 4.17.59.665 1.3 1.205 2.1 1.59.86.41 1.78.65 2.66 1 1.71.676 3.3 1.617 4.72 2.79 1.54 1.274 3 2.64 4.38 4.09-.12.37-.7.6-1 .78a2.268 2.268 0 0 0-1.21 1.43c-.31 1.51 1.5 2.48 2.68 2.83.94.238 1.88.422 2.84.55 1 .17 2 .33 2.95.45 1.99.283 4 .346 6 .19 1.95-.196 3.86-.695 5.65-1.48a8.296 8.296 0 0 1 2.74-.81c.98.014 1.94.176 2.87.48a4.608 4.608 0 0 0 4.41-.77 2.355 2.355 0 0 0 .09-3.24 9.533 9.533 0 0 0-2.85-1.78Zm-68.11-66.17a2.117 2.117 0 0 0-.84-1.153c-.4-.278-.88-.411-1.37-.377a4.1 4.1 0 0 0-1.64.354c-.52.231-.98.567-1.36.986a19.423 19.423 0 0 0-3.82 8.2c-.02 1.625.32 3.233 1 4.71.59 1.63 1.17 3.26 1.76 4.88a20.904 20.904 0 0 0 1.84 4.07 9.876 9.876 0 0 0 3 2.93c1.13.74 2.36 1.32 3.54 2 1.23.671 2.33 1.551 3.25 2.6a12.464 12.464 0 0 0 3 2.94 4.163 4.163 0 0 0 3.24.39 2.597 2.597 0 0 0 1.4-1.017c.33-.49.49-1.081.44-1.673-.12-1.55-1.21-2.89-2-4.14l-2.9-4.45c-.5-.663-.94-1.369-1.31-2.11a3.852 3.852 0 0 1 .1-2.35c.54-3.14-2-5.43-4.45-6.89-.68-.41-1.38-.79-2.06-1.2a4.289 4.289 0 0 1-1.63-1.45 5.326 5.326 0 0 1-.13-4c.18-.68.41-1.34.64-2 .01-.021.01-.043.01-.065a.772.772 0 0 0-.03-.058c-.02-.017-.03-.031-.05-.039a.153.153 0 0 0-.07-.008v-.42a.62.62 0 0 0 .21-.078.544.544 0 0 0 .22-.582h.01Z"/>
    <path fill="#fff" d="M1412.74-66.19c-26.67-20.21-61.17-38.82-94.59-45.12-53.32-10.06-111.89-6.91-164.8 4-39.61 8.19-87.86 19.05-114.93 51.26-7.19 8.56-16.54 24.05-2.88 32.12 10.09 6 26.49 7.74 37.93 11.35 11.44 3.61 22.75 9.89 34.76 10.3 13.88.47 19.44-9.4 31.94-12 10.56-2.18 22.35 1.1 33-.12 9.75-1.1 19.47-6.55 28.57-9.75 11.35-4 22-3.45 33.73-.63 5.27 1.27 10.29 3.6 15.22 5.53 5.72 2.23 9.89 6.41 15.37 9 8 3.72 20.33 2.73 29.08 3.12 12.33.53 19 6.2 29.78 11 25.21 11.26 48.86 9.3 69.31-10.17 14.46-13.77 23.09-46.87 47.61-35.64l-29.1-24.25Z"/>
    <path fill="#629867" d="M1312.81 312.22h-100.38v36.21h100.38v-36.21Z"/>
    <path fill="#79A365" d="M1312.81 312.22 1340 283.4c.26-.274.44-.619.5-.992a1.9 1.9 0 0 0-.13-1.104c-.15-.348-.4-.643-.71-.85a1.947 1.947 0 0 0-1.07-.314h-91.77l-34.38 32.08h100.37Z"/>
    <path fill="#385339" d="m1312.81 348.44 33-37.13h-6.41l-26.59 29.79v7.34Z"/>
    <path fill="#E8E4D4" d="m1338.94 284.26.46 27.05-26.59 29.79v-28.87l26.13-27.97Z"/>
    <path fill="#FAF8ED" d="M1281.64 306.04h-70.36v-29.8h70.36l4.81 13.75-4.81 16.05Z"/>
    <path fill="#355D67" d="m1281.64 306 36.44-31.4a44.647 44.647 0 0 0 1.61-13.06c-.3-4.623-.91-9.221-1.84-13.76l-36.21 28.42s2.06 8.25 2.06 13.52a72.056 72.056 0 0 1-2.06 16.28Z"/>
    <path fill="#1E353B" d="M1317.85 247.82h-73.34l-40.79 28.65h77.92l36.21-28.65Zm-106.34 49.28-10.31 8.94h10.08l.23-8.94Z"/>
    <path fill="#DEA189" d="m1277.79 247.71 15.63-13c.67-.56.17-1.47-.81-1.47h-52.77l-19.77 14.51 57.72-.04Z"/>
    <path fill="#976B5C" d="m1277.79 264.1 18.98-16.8h-3.69l-15.29 13.48v3.32Z"/>
    <path fill="#FAF8ED" d="m1292.82 235.06.26 12.24-15.29 13.48v-13.07l15.03-12.65Z"/>
    <path fill="#CA8C7A" d="M1277.79 247.71h-57.72v17.28h57.72v-17.28Z"/>
    <path fill="#383838" d="M1177.29 291.14s15.89-7.33 31.78.61 18.33 23.84 18.33 36.67c0 12.83-18.33 36.67-41.56 45.84-23.23 9.17-78.23 18.33-78.23 18.33l-13.44-27.5 47.06-29.95 18.94-29.94 17.12-14.06Z"/>
    <path fill="#91704D" d="M1077.06 385.87s36 14.67 39.72 17.72c3.72 3.05 12.22-4.28 12.22-4.28l1.23-12.83-9.17-10.39s-30-7.95-33-8.56c-3-.61-11 18.34-11 18.34Zm-51.95-3.67-9.17 11 17.72 14.67s14.67-14.67 17.73-18.33c3.06-3.66-26.28-7.34-26.28-7.34Z"/>
    <path fill="#383838" d="M1072.17 401.15s-46.45-7.34-86.18-29.34c-39.73-22-51.94-46.45-51.94-53.81 0-7.36 4.89-29.34 18.33-43.39 13.44-14.05 23.22-12.23 37.28-3.06 14.06 9.17 75.78 87.4 104.51 93.51 0 .03 0 29.94-22 36.09Z"/>
    <path fill="#6E543A" d="M1063 167.84s8.71-6 8.25-23.84h37.13s0 22.92 8.71 26.13l-3 17-24 5-19.71-8.71-7.38-15.58Z"/>
    <path fill="#91704D" d="M1060.56 115.43s-10.7-12.22-15-8.55c-4.3 3.67 15 19.55 15 19.55v-11Zm58.36-.92s9.47-13 14.67-8.32c5.2 4.68-11 20.24-14.67 20.24l-1.83-4 1.83-7.92Z"/>
    <path fill="#91704D" d="M1058.11 109.93s-.92 19.25 1.83 26.28c2.75 7.03 12.84 17.11 28.73 16.81 15.89-.3 28.42-9.48 30.86-19.86 2.44-10.38 3.36-29.65 3.36-29.65L1086.53 98l-29.34 2.14.92 9.79Z"/>
    <path fill="#3E3020" d="M1058 109.17c-1.38 2.75 0 8 2.75 8.25s9.17-.69 14 0 8.88-2.43 7.79-6.42c-1.37-5-6.87-4.58-10.77-4.81-3.9-.23-12.44.23-13.77 2.98Zm18 15.47c0 .544-.16 1.076-.46 1.528-.31.452-.74.805-1.24 1.013-.5.208-1.05.262-1.59.156a2.724 2.724 0 0 1-1.4-.752 2.753 2.753 0 0 1-.76-1.409c-.1-.533-.05-1.086.16-1.588.21-.503.56-.932 1.01-1.235.45-.302.99-.463 1.53-.463.73 0 1.43.29 1.94.805.52.516.81 1.216.81 1.945Z"/>
    <path fill="#996150" d="M1064.35 133.72s8.09-4.49 10.06-2.88c1.97 1.61 3.06 5.39-2 5.75-5.06.36-8.78 1.41-8.06-2.87Z"/>
    <path fill="#3E3020" d="M1120.75 109.17c1.38 2.75 0 8-2.75 8.25s-9.16-.69-14 0-8.88-2.43-7.79-6.42c1.38-5 6.88-4.58 10.77-4.81 3.89-.23 12.4.23 13.77 2.98Zm-17.99 15.47c0 .544.16 1.076.46 1.528.31.452.74.805 1.24 1.013.5.208 1.05.262 1.59.156a2.724 2.724 0 0 0 1.4-.752c.39-.385.65-.875.76-1.409.1-.533.05-1.086-.16-1.588a2.774 2.774 0 0 0-1.01-1.235 2.762 2.762 0 0 0-1.53-.463c-.73 0-1.43.29-1.94.805a2.739 2.739 0 0 0-.81 1.945Z"/>
    <path fill="#996150" d="M1114.36 133.72s-8.08-4.49-10.06-2.88c-1.98 1.61-3.06 5.39 2 5.75 5.06.36 8.78 1.41 8.06-2.87Z"/>
    <path fill="#6E543A" d="m1084.77 119.71-1.6 13.75s-.92 3.44 2.06 3.44 7.79.23 7.79.23c.51-.349.91-.836 1.16-1.405a3.28 3.28 0 0 0 .22-1.805c-.23-2.29-1.38-11.46-1.61-14.44-.15-2-5.73-5.27-8.02.23Z"/>
    <path fill="#E0DCCD" d="M1143.9 87.39c-.08 11.33-25.62 22.46-55.8 22.46-30.18 0-54.66-9.18-54.66-20.51 0-11.33 13.69-21.1 54.66-20.51 45.03.65 55.9 8.48 55.8 18.56Z"/>
    <path fill="#E8E4D4" d="M1052.69 77.08c2.58-3.57 4.91-7.304 7-11.18a42.231 42.231 0 0 0 3.36-8c2.29-8.25 5.39-12.14 11.8-10.54 6.41 1.6 11.58 8.77 15.24 8.09 3.66-.68 13.53-10.89 21.78-7.91 5.66 2 10.14 16 12.39 24.5 1 3.9 1.59 6.67 1.59 6.67S1117.55 92 1089.24 92s-36.55-14.92-36.55-14.92Z"/>
    <path fill="#383838" d="M1124.21 72c1 3.9 1.59 6.67 1.59 6.67S1117.55 92 1089.24 92c-28.31 0-36.55-14.9-36.55-14.9 2.58-3.57 4.91-7.304 7-11.18 0 0 18.94 19.43 60.66 8l3.86-1.92Z"/>
    <path fill="#E8E4D4" d="M1063 163.25s-31.17 10.55-36.21 13.3c-5.04 2.75-13.75 6-21.54 32.54-7.79 26.54-11.46 43.55-11.46 43.55l53.63 48.93 55.23 7.45 41.25-24.76 25.44-13.9s21.09-4.19 23.84-9.58c0 0 3.21.57 1.37-5.85-1.84-6.42-14.82-53.1-14.82-53.1s-.76-16.57-24.14-26.2c-23.38-9.63-39.88-10.54-39.88-10.54s-4.12 13.75-27 14.21c-22.88.46-25.71-16.05-25.71-16.05Z"/>
    <path fill="#E8E4D4" d="M1063 163.25s-31.17 10.55-36.21 13.3c-5.04 2.75-13.75 6-21.54 32.54-7.79 26.54-11.46 43.55-11.46 43.55l53.63 48.93 55.23 7.45 41.25-24.76 25.44-13.9s21.09-4.19 23.84-9.58c0 0 3.21.57 1.37-5.85-1.84-6.42-14.82-53.1-14.82-53.1s-.76-16.57-24.14-26.2c-23.38-9.63-39.88-10.54-39.88-10.54s-4.12 19.32-27 19.78c-22.88.46-25.71-21.62-25.71-21.62Z"/>
    <path fill="#874635" d="M1039.62 265.36h-.09a.808.808 0 0 1-.3-.094.889.889 0 0 1-.24-.203.931.931 0 0 1-.14-.28.825.825 0 0 1-.02-.313c0-.24 2.74-24.3 2.74-29.24 0-4.94 3.08-29.76 3.21-30.81a.807.807 0 0 1 .32-.485.825.825 0 0 1 .57-.141c.2.025.38.123.51.276.14.153.21.349.2.55 0 .25-3.2 25.67-3.2 30.61 0 4.94-2.65 28.43-2.76 29.43a.773.773 0 0 1-.27.502.77.77 0 0 1-.53.198Zm110.01-1.36a.794.794 0 0 1-.49-.163.758.758 0 0 1-.28-.427l-8.71-32.09a.805.805 0 0 1-.01-.378.744.744 0 0 1 .16-.342c.24-.29 2.26-2.64 4.25-3 .09-2.24-2.78-12.84-5.77-22.38a.815.815 0 0 1-.03-.311c.01-.105.04-.207.08-.3a.844.844 0 0 1 .2-.244.755.755 0 0 1 .28-.15.782.782 0 0 1 .61.054c.09.049.17.116.24.197.07.08.12.174.15.274 3.17 10.08 6.7 22.43 5.55 24-.21.232-.5.378-.81.41-1 0-2.38 1.22-3.24 2.16l8.6 31.67c.03.103.04.211.03.318-.02.107-.05.21-.1.303-.06.093-.13.175-.21.24a.9.9 0 0 1-.29.139.788.788 0 0 1-.21.02Z"/>
    <path fill="#fff" d="m1078.23 294.19-53.73-59.89-3.06 26.89 54.39 43.39 2.4-10.39Zm21.44 0 42.63-55.31 1.37 34.54-44 26.27v-5.5Z"/>
    <path fill="#FAF8ED" d="M1099.67 294.19s-7.73 3.37-21.44 0l-2.4 5.51 11.92 4.88 8.86-1 4.28-6.49-1.22-2.9Z"/>
    <path fill="#A8ADB3" d="m1077.67 296.64-66.62-51.45v67.03l66.62 58.22v-73.8Zm24.98-2.45 59.36-52.86v92.9l-59.25 36.21-.11-76.25Z"/>
    <path fill="#808186" d="M1077.67 296.64v73.8s4.41 3.21 12.55 3.21 12.54-3.21 12.54-3.21l-.11-76.25s-5.24 8.81-24.98 2.45Z"/>
    <path fill="#91704D" d="M1011.05 255.7s-4.43-4.9-17.26-3.06c-12.83 1.84-13.75 20.17-11 27.5 2.75 7.33 19.41 20.39 28.26 19.25 8.85-1.14 13.9 2.82 14.36-3.21.46-6.03 4.8-10.31 1.47-13.35l-15.83-14.44s-6.49-3.14-6.23-4.29c.26-1.15 6.23-.92 6.23-.92v-7.48Zm150.5 3.35s14.21 3.21 21.08 10.55c6.87 7.34 6 14.21 3.21 17.87s-11.91 17.88-22 19.25c-10.09 1.37-16 6-17 .92s-4.58-6.88-.46-11.92 14.21-19.25 15.59-21.08c1.38-1.83 4.58-4.13 3.21-5-1.37-.87-1.38-2.53-3.44-2.53l-.19-8.06Z"/>
    <path fill="#6E543A" d="M1025.11 295.61h-.11c-.09 0-8.47-1.2-11.74-.91-3.53.33-10.4-3.63-11.17-4.08a.81.81 0 0 1-.29-1.1c.05-.091.12-.17.21-.234a.774.774 0 0 1 .59-.151c.11.015.21.051.3.105 2 1.15 7.7 4.11 10.22 3.86 3.44-.32 11.75.87 12.1.92a.81.81 0 0 1 .75.855.836.836 0 0 1-.28.55.801.801 0 0 1-.58.195v-.01Zm.89-3.36a.543.543 0 0 1-.22 0 48.532 48.532 0 0 0-8.1-1.49c-4.14-.32-12-5.72-12.31-6a.803.803 0 0 1-.22-.226.633.633 0 0 1-.11-.292.834.834 0 0 1 0-.315.97.97 0 0 1 .13-.287.806.806 0 0 1 1.12-.2c.07.06 7.81 5.38 11.52 5.67 2.84.274 5.66.793 8.41 1.55.21.06.38.199.48.387.1.187.13.407.07.613a.828.828 0 0 1-.29.425.753.753 0 0 1-.48.165Zm.64-1.53a.783.783 0 0 1-.33-.07c-2.2-1.044-4.3-2.3-6.26-3.75-3.33-2.42-10-7.6-10.1-7.65a.832.832 0 0 1-.31-.541.856.856 0 0 1 .17-.599.81.81 0 0 1 1.14-.14c.07.06 6.75 5.22 10.07 7.63a36.789 36.789 0 0 0 6 3.58c.17.071.32.2.4.365.09.165.12.355.08.538a.834.834 0 0 1-.28.463.816.816 0 0 1-.52.174h-.06ZM1144.9 302a.803.803 0 0 1-.78-.662.897.897 0 0 1 .08-.536.831.831 0 0 1 .41-.362s2.45-.92 5.43-2.41c2.98-1.49 10.71-9.24 10.79-9.32a.796.796 0 0 1 1.1.027c.15.145.23.341.24.546 0 .205-.07.405-.21.557-.32.33-8.07 8.06-11.21 9.63-3.14 1.57-5.47 2.44-5.57 2.48a.957.957 0 0 1-.28.05Zm1.22 3.39a.834.834 0 0 1-.77-.55.839.839 0 0 1 .05-.603c.1-.186.26-.328.46-.397 0 0 3.73-1.24 7.07-2.15 2.64-.72 10.85-6.55 13.79-8.73a.814.814 0 0 1 .6-.165c.22.028.41.139.54.31.14.171.2.388.17.603a.834.834 0 0 1-.31.542c-.44.33-10.85 8-14.32 9-3.3.9-6.95 2.11-7 2.13-.09.015-.19.019-.28.01Zm.74 3.08a.86.86 0 0 1-.35-.086.867.867 0 0 1-.28-.224.817.817 0 0 1-.15-.605.84.84 0 0 1 .3-.545c.22-.17 1.26-.79 5.43-1.39 4.17-.6 13.7-5.67 13.79-5.72a.815.815 0 0 1 .61-.055.79.79 0 0 1 .54.999.748.748 0 0 1-.15.277.736.736 0 0 1-.24.199c-.41.22-10 5.27-14.32 5.89-3.8.55-4.66 1.07-4.7 1.09a.794.794 0 0 1-.48.17Z"/>
    <path fill="#E8E4D4" d="M1108.23 403s16.5 7.33 29.94 11.61c13.44 4.28 14.67 14.06 28.12 12.23 13.45-1.83 15.27-18.34 10.39-23.23-4.88-4.89-26.9-17.11-28.12-22-1.22-4.89-3-7.33-11.61-7.94-8.61-.61-22 1.83-22 1.83s11.61 11.61 4.89 20.78c-6.72 9.17-11.61 6.72-11.61 6.72ZM1019 389.54s-14.67 9.16-23.84 9.77c-9.17.61-17.72 3.06-17.11 15.89.61 12.83 8.56 18.95 15.28 19.56 6.72.61 27.5-14.67 36.67-15.28 9.17-.61 11-18.94 11-18.94s-14.06 3.05-22-11Z"/>
    <path fill="#6E543A" d="M1089.13 142.89c-6.65 0-10.36-2.54-10.55-2.67a.674.674 0 0 1-.28-.44.706.706 0 0 1 .11-.51.726.726 0 0 1 .19-.185.682.682 0 0 1 .76.015c.06 0 5.65 3.82 15.32 1.84.18-.036.36 0 .51.101.15.1.26.256.3.434a.716.716 0 0 1-.11.513.67.67 0 0 1-.43.292c-1.91.396-3.86.6-5.82.61Z"/>
    <path fill="#C0C37F" d="M125.313 199.667h43.688c1.157 0 2.156.421 2.997 1.262.841.841 1.262 1.84 1.262 2.997v23.816c0 1.156-.421 2.155-1.262 2.996-.841.841-1.84 1.262-2.997 1.262h-79.49c-1.157 0-2.156-.421-2.997-1.262-.842-.841-1.262-1.84-1.262-2.996V125.854c0-1.156.42-2.155 1.262-2.996.84-.841 1.84-1.262 2.996-1.262h31.544c1.157 0 2.156.421 2.997 1.262.841.841 1.262 1.84 1.262 2.996v73.813ZM223.957 232h-32.175c-1.157 0-2.156-.421-2.997-1.262-.841-.841-1.262-1.84-1.262-2.996V125.854c0-1.156.421-2.155 1.262-2.996.841-.841 1.84-1.262 2.997-1.262h32.175c1.156 0 2.155.421 2.996 1.262.842.841 1.262 1.84 1.262 2.996v101.888c0 1.156-.42 2.155-1.262 2.996-.841.841-1.84 1.262-2.996 1.262Zm82.124-70.974c1.156-1.367 1.735-2.997 1.735-4.889 0-1.893-.579-3.575-1.735-5.047-1.052-1.578-2.629-2.366-4.732-2.366h-13.248v14.352h13.248c2.103 0 3.68-.683 4.732-2.05Zm-17.98 28.39v15.456h14.668c2.418 0 4.206-.788 5.362-2.366 1.262-1.682 1.893-3.522 1.893-5.52v-.158c0-1.997-.684-3.732-2.051-5.204-1.261-1.472-2.996-2.208-5.204-2.208h-14.668ZM306.869 232h-53.94c-1.157 0-2.155-.421-2.997-1.262-.841-.841-1.261-1.84-1.261-2.996V125.854c0-1.156.42-2.155 1.261-2.996.842-.841 1.84-1.262 2.997-1.262h52.363c14.931 0 25.919 2.734 32.964 8.201 7.15 5.363 10.725 13.512 10.725 24.447v.473c0 4.522-1.315 8.57-3.943 12.145-2.629 3.469-5.521 5.993-8.675 7.57 4.206 1.683 7.728 4.679 10.567 8.99 2.944 4.206 4.416 8.833 4.416 13.88 0 23.132-14.825 34.698-44.477 34.698Zm162.587-5.205c.316.631.474 1.315.474 2.051 0 .736-.368 1.472-1.104 2.208-.631.631-1.42.946-2.366.946h-32.333c-3.259 0-5.52-1.419-6.782-4.258l-13.564-30.125h-6.466v30.125c0 1.156-.421 2.155-1.262 2.996-.841.841-1.84 1.262-2.997 1.262h-30.913c-1.156 0-2.155-.421-2.996-1.262-.842-.841-1.262-1.84-1.262-2.996V125.854c0-1.156.42-2.155 1.262-2.996.841-.841 1.84-1.262 2.996-1.262h46.685c15.141 0 26.97 3.417 35.487 10.252 8.517 6.729 12.776 16.455 12.776 29.178 0 12.618-5.678 22.554-17.034 29.809l19.399 35.96Zm-62.141-75.863v16.718h11.513c2.314 0 4.101-.736 5.363-2.208 1.262-1.577 1.892-3.522 1.892-5.835 0-2.314-.63-4.311-1.892-5.994-1.157-1.787-2.944-2.681-5.363-2.681h-11.513Zm112.168-29.336h34.226c3.785 0 6.151 1.735 7.097 5.205l35.172 100.625c.105.316.157.841.157 1.577 0 .631-.368 1.315-1.104 2.051-.631.631-1.419.946-2.366.946h-29.178c-3.154 0-5.205-1.314-6.151-3.943l-3.785-10.41h-33.91l-3.785 10.41c-.947 2.629-2.997 3.943-6.151 3.943h-29.179c-.946 0-1.787-.315-2.523-.946-.631-.736-.946-1.42-.946-2.051 0-.736.052-1.261.157-1.577l35.172-100.625c.946-3.47 3.312-5.205 7.097-5.205Zm8.202 65.296h17.822l-8.99-29.336-8.832 29.336Z"/>
    <path fill="#5F4B34" d="M250.997 269.325h22.67c.919 0 1.712.334 2.38 1.002.668.668 1.002 1.461 1.002 2.38v80.911c0 .919-.334 1.712-1.002 2.38-.668.668-1.461 1.002-2.38 1.002h-19.789c-2.171 0-3.883-.96-5.136-2.881l-21.167-31.939v31.438c0 .919-.334 1.712-1.002 2.38-.668.668-1.461 1.002-2.38 1.002h-22.67c-.918 0-1.712-.334-2.38-1.002-.668-.668-1.002-1.461-1.002-2.38v-80.911c0-.919.334-1.712 1.002-2.38.668-.668 1.462-1.002 2.38-1.002h19.789c2.339 0 4.05.96 5.136 2.881l21.167 34.694v-34.193c0-.919.334-1.712 1.002-2.38.668-.668 1.461-1.002 2.38-1.002Zm72.365 63.251h38.577c.918 0 1.712.334 2.38 1.002.668.668 1.002 1.461 1.002 2.38v17.66c0 .919-.334 1.712-1.002 2.38-.668.668-1.462 1.002-2.38 1.002h-65.255c-.919 0-1.712-.334-2.38-1.002-.668-.668-1.002-1.461-1.002-2.38v-80.911c0-.919.334-1.712 1.002-2.38.668-.668 1.461-1.002 2.38-1.002h64.253c.918 0 1.712.334 2.38 1.002.668.668 1.002 1.461 1.002 2.38v17.66c0 .918-.334 1.712-1.002 2.38-.668.668-1.462 1.002-2.38 1.002h-37.575v7.89h34.819c.919 0 1.712.334 2.38 1.002.668.668 1.002 1.462 1.002 2.38v16.283c0 .918-.334 1.711-1.002 2.379-.668.668-1.461 1.002-2.38 1.002h-34.819v7.891Zm56.026-63.251h73.396c.919 0 1.712.334 2.38 1.002.668.668 1.002 1.461 1.002 2.38v20.165c0 .918-.334 1.712-1.002 2.38-.668.668-1.461 1.002-2.38 1.002h-20.791v57.364c0 .919-.334 1.712-1.002 2.38-.668.668-1.461 1.002-2.38 1.002h-25.05c-.918 0-1.712-.334-2.38-1.002-.668-.668-1.002-1.461-1.002-2.38v-57.364h-20.791c-.919 0-1.712-.334-2.38-1.002-.668-.668-1.002-1.462-1.002-2.38v-20.165c0-.919.334-1.712 1.002-2.38.668-.668 1.461-1.002 2.38-1.002Z"/>
  </g>
  <defs>
    <clipPath id="a">
      <path fill="#fff" d="M0 0h1470v500H0z" transform="translate(-15)"/>
    </clipPath>
  </defs>
</svg>
